<?xml version="1.0" encoding="UTF-8"?>
<svg version="1.1" xmlns="http://www.w3.org/2000/svg" width="722" height="606">
<path d="M0 0 C238.26 0 476.52 0 722 0 C722 199.98 722 399.96 722 606 C483.74 606 245.48 606 0 606 C0 406.02 0 206.04 0 0 Z " fill="#FCFCFC" transform="translate(0,0)"/>
<path d="M0 0 C7.26 0 14.52 0 22 0 C22.33 20.79 22.66 41.58 23 63 C42.14 63 61.28 63 81 63 C81 70.59 81 78.18 81 86 C61.86 86 42.72 86 23 86 C23.06164742 102.58513049 23.06164742 102.58513049 23.16015625 119.16992188 C23.20851623 125.9338407 23.25255139 132.69759475 23.27099609 139.46166992 C23.28613588 144.91482252 23.32053415 150.36754421 23.36830902 155.82050514 C23.38315041 157.90127633 23.39104259 159.98210902 23.39188385 162.06293297 C23.39424692 164.97691202 23.42127379 167.88969384 23.45410156 170.8034668 C23.4490712 171.66445984 23.44404083 172.52545288 23.43885803 173.41253662 C23.5089399 177.43124862 23.68491208 179.49873381 25.87030029 182.97541809 C28.24923208 185.23693048 30.48122077 186.52291424 33.4375 187.9375 C36.89197554 189.71290775 39.51061815 191.14533246 41.875 194.25 C44.22197559 197.28726253 45.51510775 197.69316541 49 199 C50.66666667 200.66666667 52.33333333 202.33333333 54 204 C54.85980469 204.40734375 55.71960938 204.8146875 56.60546875 205.234375 C61.12890147 207.58718465 64.8979603 210.64215533 68.875 213.8125 C70.41353074 215.02801712 71.95258956 216.24286615 73.4921875 217.45703125 C74.24177734 218.0492749 74.99136719 218.64151855 75.76367188 219.25170898 C79.13603381 221.88811552 82.56463863 224.44660249 86 227 C87.25040732 227.93695666 88.50045465 228.8743941 89.75 229.8125 C90.41515625 230.31136719 91.0803125 230.81023437 91.765625 231.32421875 C100.8359375 238.12695312 100.8359375 238.12695312 109.90625 244.9296875 C110.91341064 245.68499756 110.91341064 245.68499756 111.94091797 246.45556641 C113.31509764 247.48628263 114.68912078 248.51720757 116.06298828 249.54833984 C119.15039691 251.86519044 122.23915992 254.18005775 125.3359375 256.484375 C130.02025747 259.97654156 134.65277139 263.50259765 139.1875 267.1875 C142.87749041 270.16652092 146.66120672 272.84319691 150.6328125 275.4296875 C153.404714 277.26847364 156.11157383 279.18348543 158.8125 281.125 C159.70582031 281.76695312 160.59914063 282.40890625 161.51953125 283.0703125 C163.87985855 284.90653562 165.90003402 286.8780218 168 289 C168.99 289.66 169.98 290.32 171 291 C174 293 174 293 175.9375 295 C178.13003308 297.12609269 180.4351225 298.36895908 183.1015625 299.8203125 C185.16591011 301.1030964 186.83308495 302.54680141 188.625 304.1875 C192.00865138 307.25639312 195.59818191 309.88056459 199.375 312.4375 C205.15386067 316.35415333 210.60929076 320.56784997 216 325 C219.07601015 327.51367704 222.16654447 329.84029641 225.5 332 C228.83060949 334.15785967 231.92603323 336.48887222 235 339 C233.26726504 347.4178968 231.37704629 355.73934268 229 364 C223.33263968 362.77762817 221.03018981 361.31806051 217 357 C212.86861343 353.54601195 208.85223179 350.35799601 204 348 C203 347 202 346 201 345 C199.948125 344.319375 198.89625 343.63875 197.8125 342.9375 C196.884375 342.298125 195.95625 341.65875 195 341 C195 340.34 195 339.68 195 339 C193.68 338.67 192.36 338.34 191 338 C190.67 390.8 190.34 443.6 190 498 C197.92 498.99 205.84 499.98 214 501 C221 503 221 503 223.3828125 504.0390625 C227.13309561 505.41603212 230.92944344 505.83205161 234.875 506.375 C256.3086003 509.53906687 256.3086003 509.53906687 263 514 C264.54199497 514.32422889 266.09895128 514.5796336 267.66015625 514.79296875 C274.76723023 515.993259 281.46722766 518.26224591 288.26977539 520.57592773 C290.42754484 521.30911733 292.5892865 522.02944783 294.75195312 522.74804688 C301.18628761 524.90067272 307.58794413 527.14090956 313.91015625 529.60546875 C314.85125244 529.9718042 315.79234863 530.33813965 316.76196289 530.71557617 C319.36020443 532.20672363 319.77384047 533.35382442 321 536 C324.20297158 536.63885661 324.20297158 536.63885661 328 537 C330.98961657 537.79243674 333.89385402 538.79236615 336.8125 539.8125 C337.57498047 540.06064453 338.33746094 540.30878906 339.12304688 540.56445312 C344.64470108 542.48311812 344.64470108 542.48311812 346.51171875 545.19921875 C346.75341797 546.09060547 346.75341797 546.09060547 347 547 C339.34514304 546.04520064 332.05531053 544.26850559 324.625 542.25 C313.79139048 539.31327698 302.87702881 537.07578202 291.85205078 535.00488281 C290.01682861 534.65441895 290.01682861 534.65441895 288.14453125 534.296875 C287.05503174 534.09416992 285.96553223 533.89146484 284.84301758 533.68261719 C281.87840317 532.97080423 279.19588147 532.19588147 277 530 C275.18612291 529.72557372 273.36349611 529.50850483 271.5390625 529.31640625 C270.42789063 529.19330078 269.31671875 529.07019531 268.171875 528.94335938 C265.81542783 528.69032678 263.4586553 528.44030535 261.1015625 528.19335938 C259.4309375 528.00676758 259.4309375 528.00676758 257.7265625 527.81640625 C256.18863037 527.65313843 256.18863037 527.65313843 254.61962891 527.48657227 C252 527 252 527 249 525 C246.56297222 524.79196104 244.19066066 524.67970057 241.75 524.625 C234.70248109 524.34254961 227.93084345 523.41294373 221 522.125 C212.99807395 520.64860046 205.02197298 519.42701785 196.9375 518.5 C187.87255577 517.45610102 178.81397669 516.37835223 169.76565552 515.19873047 C167.78963721 514.94263701 165.8126701 514.69389886 163.83569336 514.4453125 C162.6266333 514.28675781 161.41757324 514.12820313 160.171875 513.96484375 C158.5645752 513.75782837 158.5645752 513.75782837 156.92480469 513.54663086 C154 513 154 513 151.66404724 511.99050903 C148.77370913 510.91586367 146.52517781 510.69574262 143.45043945 510.60522461 C141.81767815 510.55023048 141.81767815 510.55023048 140.15193176 510.49412537 C138.98417709 510.46383743 137.81642242 510.4335495 136.61328125 510.40234375 C134.79500069 510.34355797 134.79500069 510.34355797 132.93998718 510.28358459 C129.06436987 510.15960757 125.18852546 510.04791368 121.3125 509.9375 C117.45442256 509.82153829 113.59645531 509.7029283 109.73857117 509.58070374 C107.34010622 509.50535071 104.94151502 509.43388163 102.5428009 509.3669281 C95.98912871 509.16804762 89.51306116 508.76260035 83 508 C83 507.34 83 506.68 83 506 C81.50835327 506.00785522 81.50835327 506.00785522 79.98657227 506.01586914 C76.30966079 506.03392041 72.63275325 506.04543246 68.95581055 506.05493164 C67.36205386 506.05997157 65.76830181 506.0668035 64.17456055 506.07543945 C61.88849747 506.08751999 59.60249533 506.09323155 57.31640625 506.09765625 C56.59973282 506.10281754 55.88305939 506.10797882 55.14466858 506.11329651 C53.42936328 506.11349263 51.71418734 506.06192007 50 506 C47.89052926 503.89052926 48.82449259 499.18132405 48.81054688 496.2644043 C48.80225357 495.34719101 48.79396027 494.42997772 48.78541565 493.48497009 C48.7679659 491.48407947 48.75281275 489.48316784 48.73963928 487.48224449 C48.71863841 484.30734793 48.6916054 481.13255412 48.66296387 477.9577179 C48.60313994 471.20101842 48.5511704 464.44426975 48.5 457.6875 C48.44061233 449.8946421 48.37796812 442.10183271 48.30812073 434.30906105 C48.28175438 431.19626543 48.26080246 428.08346458 48.2401123 424.97062683 C49.33272086 407.35422109 49.33272086 407.35422109 43.75 391.625 C43.110625 390.820625 42.47125 390.01625 41.8125 389.1875 C41.214375 388.465625 40.61625 387.74375 40 387 C39.608125 386.401875 39.21625 385.80375 38.8125 385.1875 C34.89266667 379.42303921 28.0753278 378.02223941 21.6640625 376.4140625 C7.82209437 374.26267156 -4.61421377 376.11035118 -16.1328125 384.390625 C-19.02840532 386.88640793 -20.62851418 389.50561414 -22 393 C-22.33352478 393.79681686 -22.66704956 394.59363373 -23.01068115 395.41459656 C-27.00005417 406.44898663 -26.70386927 417.54289782 -26.828125 429.14453125 C-26.86560652 431.36800416 -26.90475755 433.59144949 -26.94549561 435.81486511 C-27.04753756 441.62602371 -27.12710685 447.43727425 -27.20178223 453.24884033 C-27.28224183 459.19541602 -27.38425191 465.14161927 -27.484375 471.08789062 C-27.67718042 482.72499764 -27.84621426 494.36231644 -28 506 C-51.27558644 508.27982191 -51.27558644 508.27982191 -62.65625 508.34375 C-64.79036467 508.37369178 -66.92447925 508.40363986 -69.05859375 508.43359375 C-72.31264284 508.46877534 -75.56671029 508.50063758 -78.82080078 508.53173828 C-82.03693411 508.56544241 -85.25276972 508.610457 -88.46875 508.65625 C-89.44058228 508.6615271 -90.41241455 508.6668042 -91.41369629 508.67224121 C-96.38651718 508.74558145 -100.30250268 509.2169051 -105 511 C-107.65869141 511.39477539 -107.65869141 511.39477539 -110.3515625 511.59765625 C-111.35695068 511.67612793 -112.36233887 511.75459961 -113.39819336 511.83544922 C-114.46303955 511.91037598 -115.52788574 511.98530273 -116.625 512.0625 C-117.7394751 512.14773926 -118.8539502 512.23297852 -120.00219727 512.32080078 C-125.85899133 512.75531956 -131.70650017 513.08702356 -137.57543945 513.29003906 C-148.21357308 513.67268201 -158.52876407 515.17096759 -169.02734375 516.88671875 C-177.70436125 518.30041106 -186.41554136 519.45315808 -195.13061523 520.60473633 C-200.26136287 521.29450268 -205.3343351 522.02810262 -210.3984375 523.109375 C-214.35775093 523.938462 -218.06614521 524.21135861 -222.125 524.125 C-223.24132812 524.10695313 -224.35765625 524.08890625 -225.5078125 524.0703125 C-226.74144531 524.03550781 -226.74144531 524.03550781 -228 524 C-228 524.66 -228 525.32 -228 526 C-229.134375 526.19335938 -230.26875 526.38671875 -231.4375 526.5859375 C-232.95836032 526.84880225 -234.47919214 527.11183192 -236 527.375 C-237.11568359 527.56449219 -237.11568359 527.56449219 -238.25390625 527.7578125 C-241.96773814 528.40369631 -245.60947661 529.13040007 -249.25390625 530.09765625 C-252.39010758 530.85309161 -254.75762955 531.1983919 -257.9375 531.0625 C-262.72018473 530.95127477 -267.25685791 531.38798167 -272 532 C-272 532.66 -272 533.32 -272 534 C-274.88211302 534.96070434 -276.69850044 535.10581883 -279.6875 535.0625 C-280.49574219 535.05347656 -281.30398438 535.04445313 -282.13671875 535.03515625 C-283.05904297 535.01775391 -283.05904297 535.01775391 -284 535 C-284 535.66 -284 536.32 -284 537 C-284.88558594 537.23074219 -285.77117187 537.46148438 -286.68359375 537.69921875 C-293.05042436 539.37539788 -299.38429976 541.09918858 -305.68212891 543.02001953 C-312.11667562 544.97860901 -318.24984724 546.63180985 -325 547 C-323.63373338 543.65089516 -322.47049321 542.36898162 -319.1875 540.875 C-318.52105469 540.56304688 -317.85460937 540.25109375 -317.16796875 539.9296875 C-316.45253906 539.62289062 -315.73710937 539.31609375 -315 539 C-314.21496094 538.66097656 -313.42992187 538.32195313 -312.62109375 537.97265625 C-308.7524572 536.53705193 -304.7678871 535.75733197 -300.7421875 534.87890625 C-297.8499587 533.95190984 -297.02740039 533.13640041 -295 531 C-289.25551079 528.35376809 -283.24743958 526.74701734 -277.0703125 525.49609375 C-272.63181751 524.43252986 -268.79650557 522.53100371 -265 520 C-262.18886873 519.33974455 -259.39374132 518.74423733 -256.5625 518.1875 C-249.97199223 516.81545945 -244.07842382 514.98541228 -237.9140625 512.234375 C-227.77923946 507.94134004 -217.918149 506.33185863 -207 506 C-207 505.34 -207 504.68 -207 504 C-203.6684186 503.18020333 -200.33445648 502.37051582 -197 501.5625 C-195.59814453 501.21735352 -195.59814453 501.21735352 -194.16796875 500.86523438 C-185.13531415 498.6860275 -177.45010855 498 -168 498 C-168 445.53 -168 393.06 -168 339 C-177.61299369 342.37683739 -177.61299369 342.37683739 -182 349 C-184.31808364 350.03485877 -186.65175298 351.0355414 -189 352 C-190.36244796 353.64295195 -191.69864875 355.30824337 -193 357 C-194.64551962 357.71727778 -196.31422289 358.38325228 -198 359 C-198.86625 359.70125 -199.7325 360.4025 -200.625 361.125 C-203 363 -203 363 -206 363 C-207.01704963 360.50580686 -208.01349355 358.00625963 -209 355.5 C-209.28617187 354.80390625 -209.57234375 354.1078125 -209.8671875 353.390625 C-211.82003114 348.36902708 -212.73083535 344.38921336 -212 339 C-209.76953125 336.3203125 -209.76953125 336.3203125 -206.8125 334.125 C-205.36810547 333.01511719 -205.36810547 333.01511719 -203.89453125 331.8828125 C-201 330 -201 330 -198.453125 329.01953125 C-195.33174597 327.72227022 -193.39259834 325.873404 -190.9375 323.5625 C-182.85172982 316 -182.85172982 316 -180 316 C-180 315.34 -180 314.68 -180 314 C-177.03812728 311.82796 -174.49314009 310.16438003 -171 309 C-169.31002677 307.35697047 -167.64783606 305.68528688 -166 304 C-162.6759204 300.82701493 -159.64950002 298.08128801 -155.3125 296.4375 C-151.5690596 294.81298813 -150.45421198 293.16672514 -148 290 C-146.00854609 288.98308736 -144.00812926 287.98357352 -142 287 C-140.31002677 285.35697047 -138.64783606 283.68528688 -137 282 C-133.71972615 279.2655466 -130.37171169 276.62061494 -127 274 C-125.94425781 273.16275391 -125.94425781 273.16275391 -124.8671875 272.30859375 C-123 271 -123 271 -120.1875 270.1875 C-115.14924484 268.31050298 -111.42515087 264.93413333 -108.25 260.625 C-107.8375 260.08875 -107.425 259.5525 -107 259 C-106.01 259 -105.02 259 -104 259 C-103.67 258.01 -103.34 257.02 -103 256 C-101.42114258 254.51367188 -101.42114258 254.51367188 -99.39453125 252.96875 C-98.28948242 252.12376953 -98.28948242 252.12376953 -97.16210938 251.26171875 C-96.38673828 250.68035156 -95.61136719 250.09898437 -94.8125 249.5 C-94.05646484 248.91863281 -93.30042969 248.33726562 -92.52148438 247.73828125 C-82.31297376 240 -82.31297376 240 -78 240 C-77.67 239.01 -77.34 238.02 -77 237 C-75.66666667 236.33333333 -74.33333333 235.66666667 -73 235 C-71.31126121 233.35570171 -69.64694485 231.68615782 -68 230 C-65.33682527 227.53409747 -62.86173797 225.33628799 -59.4375 224 C-56.79259426 223.09802411 -56.79259426 223.09802411 -54.625 220.625 C-52.42912808 218.42912808 -51.02039114 217.34355874 -48.375 215.9375 C-45.0128655 214.31292932 -45.0128655 214.31292932 -43.5 211.9375 C-42 210 -42 210 -38.4375 208.5 C-34.53562024 206.79736156 -34.72117472 206.50283413 -33 203 C-31.1875 201.37182617 -31.1875 201.37182617 -29 199.79296875 C-28.19957275 199.20918457 -27.39914551 198.62540039 -26.57446289 198.02392578 C-25.72489014 197.41790527 -24.87531738 196.81188477 -24 196.1875 C-23.13947021 195.56601074 -22.27894043 194.94452148 -21.39233398 194.30419922 C-19.69369536 193.07953583 -17.99250846 191.85839783 -16.28857422 190.64111328 C-14.39921925 189.28627606 -12.52505299 187.91546421 -10.66015625 186.52734375 C-9.80292969 185.89957031 -8.94570313 185.27179688 -8.0625 184.625 C-7.35222656 184.10164062 -6.64195312 183.57828125 -5.91015625 183.0390625 C-4 182 -4 182 0 182 C0 149.99 0 117.98 0 85 C-19.14 85 -38.28 85 -58 85 C-58 77.74 -58 70.48 -58 63 C-38.86 63 -19.72 63 0 63 C0 42.21 0 21.42 0 0 Z " fill="#FBFBFC" transform="translate(353,40)"/>
<path d="M0 0 C7.26 0 14.52 0 22 0 C22.33 20.79 22.66 41.58 23 63 C42.14 63 61.28 63 81 63 C81 70.59 81 78.18 81 86 C61.86 86 42.72 86 23 86 C23.06164742 102.58513049 23.06164742 102.58513049 23.16015625 119.16992188 C23.20851623 125.9338407 23.25255139 132.69759475 23.27099609 139.46166992 C23.28613588 144.91482252 23.32053415 150.36754421 23.36830902 155.82050514 C23.38315041 157.90127633 23.39104259 159.98210902 23.39188385 162.06293297 C23.39424692 164.97691202 23.42127379 167.88969384 23.45410156 170.8034668 C23.4490712 171.66445984 23.44404083 172.52545288 23.43885803 173.41253662 C23.5089399 177.43124862 23.68491208 179.49873381 25.87030029 182.97541809 C28.24923208 185.23693048 30.48122077 186.52291424 33.4375 187.9375 C36.89197554 189.71290775 39.51061815 191.14533246 41.875 194.25 C44.22197559 197.28726253 45.51510775 197.69316541 49 199 C50.66666667 200.66666667 52.33333333 202.33333333 54 204 C54.85980469 204.40734375 55.71960938 204.8146875 56.60546875 205.234375 C61.12890147 207.58718465 64.8979603 210.64215533 68.875 213.8125 C70.41353074 215.02801712 71.95258956 216.24286615 73.4921875 217.45703125 C74.24177734 218.0492749 74.99136719 218.64151855 75.76367188 219.25170898 C79.13603381 221.88811552 82.56463863 224.44660249 86 227 C87.25040732 227.93695666 88.50045465 228.8743941 89.75 229.8125 C90.41515625 230.31136719 91.0803125 230.81023437 91.765625 231.32421875 C100.8359375 238.12695312 100.8359375 238.12695312 109.90625 244.9296875 C110.91341064 245.68499756 110.91341064 245.68499756 111.94091797 246.45556641 C113.31509764 247.48628263 114.68912078 248.51720757 116.06298828 249.54833984 C119.15039691 251.86519044 122.23915992 254.18005775 125.3359375 256.484375 C130.02025747 259.97654156 134.65277139 263.50259765 139.1875 267.1875 C142.87749041 270.16652092 146.66120672 272.84319691 150.6328125 275.4296875 C153.404714 277.26847364 156.11157383 279.18348543 158.8125 281.125 C159.70582031 281.76695312 160.59914063 282.40890625 161.51953125 283.0703125 C163.87985855 284.90653562 165.90003402 286.8780218 168 289 C168.99 289.66 169.98 290.32 171 291 C174 293 174 293 175.9375 295 C178.13003308 297.12609269 180.4351225 298.36895908 183.1015625 299.8203125 C185.16591011 301.1030964 186.83308495 302.54680141 188.625 304.1875 C192.00865138 307.25639312 195.59818191 309.88056459 199.375 312.4375 C205.15386067 316.35415333 210.60929076 320.56784997 216 325 C219.07601015 327.51367704 222.16654447 329.84029641 225.5 332 C228.83060949 334.15785967 231.92603323 336.48887222 235 339 C233.26726504 347.4178968 231.37704629 355.73934268 229 364 C223.33263968 362.77762817 221.03018981 361.31806051 217 357 C212.86861343 353.54601195 208.85223179 350.35799601 204 348 C203 347 202 346 201 345 C199.948125 344.319375 198.89625 343.63875 197.8125 342.9375 C196.884375 342.298125 195.95625 341.65875 195 341 C195 340.34 195 339.68 195 339 C193.68 338.67 192.36 338.34 191 338 C190.67 390.8 190.34 443.6 190 498 C197.92 498.99 205.84 499.98 214 501 C221 503 221 503 223.3828125 504.0390625 C227.13309561 505.41603212 230.92944344 505.83205161 234.875 506.375 C256.3086003 509.53906687 256.3086003 509.53906687 263 514 C264.54199497 514.32422889 266.09895128 514.5796336 267.66015625 514.79296875 C274.76723023 515.993259 281.46722766 518.26224591 288.26977539 520.57592773 C290.42754484 521.30911733 292.5892865 522.02944783 294.75195312 522.74804688 C301.18628761 524.90067272 307.58794413 527.14090956 313.91015625 529.60546875 C314.85125244 529.9718042 315.79234863 530.33813965 316.76196289 530.71557617 C319.36020443 532.20672363 319.77384047 533.35382442 321 536 C324.20297158 536.63885661 324.20297158 536.63885661 328 537 C330.98961657 537.79243674 333.89385402 538.79236615 336.8125 539.8125 C337.57498047 540.06064453 338.33746094 540.30878906 339.12304688 540.56445312 C344.64470108 542.48311812 344.64470108 542.48311812 346.51171875 545.19921875 C346.75341797 546.09060547 346.75341797 546.09060547 347 547 C339.34514304 546.04520064 332.05531053 544.26850559 324.625 542.25 C313.79139048 539.31327698 302.87702881 537.07578202 291.85205078 535.00488281 C290.01682861 534.65441895 290.01682861 534.65441895 288.14453125 534.296875 C287.05503174 534.09416992 285.96553223 533.89146484 284.84301758 533.68261719 C281.87840317 532.97080423 279.19588147 532.19588147 277 530 C275.18612291 529.72557372 273.36349611 529.50850483 271.5390625 529.31640625 C270.42789063 529.19330078 269.31671875 529.07019531 268.171875 528.94335938 C265.81542783 528.69032678 263.4586553 528.44030535 261.1015625 528.19335938 C259.4309375 528.00676758 259.4309375 528.00676758 257.7265625 527.81640625 C256.18863037 527.65313843 256.18863037 527.65313843 254.61962891 527.48657227 C252 527 252 527 249 525 C246.56297222 524.79196104 244.19066066 524.67970057 241.75 524.625 C234.70248109 524.34254961 227.93084345 523.41294373 221 522.125 C212.99807395 520.64860046 205.02197298 519.42701785 196.9375 518.5 C187.87255577 517.45610102 178.81397669 516.37835223 169.76565552 515.19873047 C167.78963721 514.94263701 165.8126701 514.69389886 163.83569336 514.4453125 C162.6266333 514.28675781 161.41757324 514.12820313 160.171875 513.96484375 C158.5645752 513.75782837 158.5645752 513.75782837 156.92480469 513.54663086 C154 513 154 513 151.66404724 511.99050903 C148.77370913 510.91586367 146.52517781 510.69574262 143.45043945 510.60522461 C141.81767815 510.55023048 141.81767815 510.55023048 140.15193176 510.49412537 C138.98417709 510.46383743 137.81642242 510.4335495 136.61328125 510.40234375 C134.79500069 510.34355797 134.79500069 510.34355797 132.93998718 510.28358459 C129.06436987 510.15960757 125.18852546 510.04791368 121.3125 509.9375 C117.45442256 509.82153829 113.59645531 509.7029283 109.73857117 509.58070374 C107.34010622 509.50535071 104.94151502 509.43388163 102.5428009 509.3669281 C95.98912871 509.16804762 89.51306116 508.76260035 83 508 C83 507.34 83 506.68 83 506 C81.50835327 506.00785522 81.50835327 506.00785522 79.98657227 506.01586914 C76.30966079 506.03392041 72.63275325 506.04543246 68.95581055 506.05493164 C67.36205386 506.05997157 65.76830181 506.0668035 64.17456055 506.07543945 C61.88849747 506.08751999 59.60249533 506.09323155 57.31640625 506.09765625 C56.59973282 506.10281754 55.88305939 506.10797882 55.14466858 506.11329651 C53.42936328 506.11349263 51.71418734 506.06192007 50 506 C47.89052926 503.89052926 48.82449259 499.18132405 48.81054688 496.2644043 C48.80225357 495.34719101 48.79396027 494.42997772 48.78541565 493.48497009 C48.7679659 491.48407947 48.75281275 489.48316784 48.73963928 487.48224449 C48.71863841 484.30734793 48.6916054 481.13255412 48.66296387 477.9577179 C48.60313994 471.20101842 48.5511704 464.44426975 48.5 457.6875 C48.44061233 449.8946421 48.37796812 442.10183271 48.30812073 434.30906105 C48.28175438 431.19626543 48.26080246 428.08346458 48.2401123 424.97062683 C49.33272086 407.35422109 49.33272086 407.35422109 43.75 391.625 C43.110625 390.820625 42.47125 390.01625 41.8125 389.1875 C41.214375 388.465625 40.61625 387.74375 40 387 C39.608125 386.401875 39.21625 385.80375 38.8125 385.1875 C34.89266667 379.42303921 28.0753278 378.02223941 21.6640625 376.4140625 C7.82209437 374.26267156 -4.61421377 376.11035118 -16.1328125 384.390625 C-19.02840532 386.88640793 -20.62851418 389.50561414 -22 393 C-22.33352478 393.79681686 -22.66704956 394.59363373 -23.01068115 395.41459656 C-27.00005417 406.44898663 -26.70386927 417.54289782 -26.828125 429.14453125 C-26.86560652 431.36800416 -26.90475755 433.59144949 -26.94549561 435.81486511 C-27.04753756 441.62602371 -27.12710685 447.43727425 -27.20178223 453.24884033 C-27.28224183 459.19541602 -27.38425191 465.14161927 -27.484375 471.08789062 C-27.67718042 482.72499764 -27.84621426 494.36231644 -28 506 C-51.27558644 508.27982191 -51.27558644 508.27982191 -62.65625 508.34375 C-64.79036467 508.37369178 -66.92447925 508.40363986 -69.05859375 508.43359375 C-72.31264284 508.46877534 -75.56671029 508.50063758 -78.82080078 508.53173828 C-82.03693411 508.56544241 -85.25276972 508.610457 -88.46875 508.65625 C-89.44058228 508.6615271 -90.41241455 508.6668042 -91.41369629 508.67224121 C-96.38651718 508.74558145 -100.30250268 509.2169051 -105 511 C-107.65869141 511.39477539 -107.65869141 511.39477539 -110.3515625 511.59765625 C-111.35695068 511.67612793 -112.36233887 511.75459961 -113.39819336 511.83544922 C-114.46303955 511.91037598 -115.52788574 511.98530273 -116.625 512.0625 C-117.7394751 512.14773926 -118.8539502 512.23297852 -120.00219727 512.32080078 C-125.85899133 512.75531956 -131.70650017 513.08702356 -137.57543945 513.29003906 C-148.21357308 513.67268201 -158.52876407 515.17096759 -169.02734375 516.88671875 C-177.70436125 518.30041106 -186.41554136 519.45315808 -195.13061523 520.60473633 C-200.26136287 521.29450268 -205.3343351 522.02810262 -210.3984375 523.109375 C-214.35775093 523.938462 -218.06614521 524.21135861 -222.125 524.125 C-223.24132812 524.10695313 -224.35765625 524.08890625 -225.5078125 524.0703125 C-226.74144531 524.03550781 -226.74144531 524.03550781 -228 524 C-228 524.66 -228 525.32 -228 526 C-229.134375 526.19335938 -230.26875 526.38671875 -231.4375 526.5859375 C-232.95836032 526.84880225 -234.47919214 527.11183192 -236 527.375 C-237.11568359 527.56449219 -237.11568359 527.56449219 -238.25390625 527.7578125 C-241.96773814 528.40369631 -245.60947661 529.13040007 -249.25390625 530.09765625 C-252.39010758 530.85309161 -254.75762955 531.1983919 -257.9375 531.0625 C-262.72018473 530.95127477 -267.25685791 531.38798167 -272 532 C-272 532.66 -272 533.32 -272 534 C-274.88211302 534.96070434 -276.69850044 535.10581883 -279.6875 535.0625 C-280.49574219 535.05347656 -281.30398438 535.04445313 -282.13671875 535.03515625 C-283.05904297 535.01775391 -283.05904297 535.01775391 -284 535 C-284 535.66 -284 536.32 -284 537 C-284.88558594 537.23074219 -285.77117187 537.46148438 -286.68359375 537.69921875 C-293.05042436 539.37539788 -299.38429976 541.09918858 -305.68212891 543.02001953 C-312.11667562 544.97860901 -318.24984724 546.63180985 -325 547 C-323.63373338 543.65089516 -322.47049321 542.36898162 -319.1875 540.875 C-318.52105469 540.56304688 -317.85460937 540.25109375 -317.16796875 539.9296875 C-316.45253906 539.62289062 -315.73710937 539.31609375 -315 539 C-314.21496094 538.66097656 -313.42992187 538.32195313 -312.62109375 537.97265625 C-308.7524572 536.53705193 -304.7678871 535.75733197 -300.7421875 534.87890625 C-297.8499587 533.95190984 -297.02740039 533.13640041 -295 531 C-289.25551079 528.35376809 -283.24743958 526.74701734 -277.0703125 525.49609375 C-272.63181751 524.43252986 -268.79650557 522.53100371 -265 520 C-262.18886873 519.33974455 -259.39374132 518.74423733 -256.5625 518.1875 C-249.97199223 516.81545945 -244.07842382 514.98541228 -237.9140625 512.234375 C-227.77923946 507.94134004 -217.918149 506.33185863 -207 506 C-207 505.34 -207 504.68 -207 504 C-203.6684186 503.18020333 -200.33445648 502.37051582 -197 501.5625 C-195.59814453 501.21735352 -195.59814453 501.21735352 -194.16796875 500.86523438 C-185.13531415 498.6860275 -177.45010855 498 -168 498 C-168 445.53 -168 393.06 -168 339 C-177.61299369 342.37683739 -177.61299369 342.37683739 -182 349 C-184.31808364 350.03485877 -186.65175298 351.0355414 -189 352 C-190.36244796 353.64295195 -191.69864875 355.30824337 -193 357 C-194.64551962 357.71727778 -196.31422289 358.38325228 -198 359 C-198.86625 359.70125 -199.7325 360.4025 -200.625 361.125 C-203 363 -203 363 -206 363 C-207.01704963 360.50580686 -208.01349355 358.00625963 -209 355.5 C-209.28617187 354.80390625 -209.57234375 354.1078125 -209.8671875 353.390625 C-211.82003114 348.36902708 -212.73083535 344.38921336 -212 339 C-209.76953125 336.3203125 -209.76953125 336.3203125 -206.8125 334.125 C-205.36810547 333.01511719 -205.36810547 333.01511719 -203.89453125 331.8828125 C-201 330 -201 330 -198.453125 329.01953125 C-195.33174597 327.72227022 -193.39259834 325.873404 -190.9375 323.5625 C-182.85172982 316 -182.85172982 316 -180 316 C-180 315.34 -180 314.68 -180 314 C-177.03812728 311.82796 -174.49314009 310.16438003 -171 309 C-169.31002677 307.35697047 -167.64783606 305.68528688 -166 304 C-162.6759204 300.82701493 -159.64950002 298.08128801 -155.3125 296.4375 C-151.5690596 294.81298813 -150.45421198 293.16672514 -148 290 C-146.00854609 288.98308736 -144.00812926 287.98357352 -142 287 C-140.31002677 285.35697047 -138.64783606 283.68528688 -137 282 C-133.71972615 279.2655466 -130.37171169 276.62061494 -127 274 C-125.94425781 273.16275391 -125.94425781 273.16275391 -124.8671875 272.30859375 C-123 271 -123 271 -120.1875 270.1875 C-115.14924484 268.31050298 -111.42515087 264.93413333 -108.25 260.625 C-107.8375 260.08875 -107.425 259.5525 -107 259 C-106.01 259 -105.02 259 -104 259 C-103.67 258.01 -103.34 257.02 -103 256 C-101.42114258 254.51367188 -101.42114258 254.51367188 -99.39453125 252.96875 C-98.28948242 252.12376953 -98.28948242 252.12376953 -97.16210938 251.26171875 C-96.38673828 250.68035156 -95.61136719 250.09898437 -94.8125 249.5 C-94.05646484 248.91863281 -93.30042969 248.33726562 -92.52148438 247.73828125 C-82.31297376 240 -82.31297376 240 -78 240 C-77.67 239.01 -77.34 238.02 -77 237 C-75.66666667 236.33333333 -74.33333333 235.66666667 -73 235 C-71.31126121 233.35570171 -69.64694485 231.68615782 -68 230 C-65.33682527 227.53409747 -62.86173797 225.33628799 -59.4375 224 C-56.79259426 223.09802411 -56.79259426 223.09802411 -54.625 220.625 C-52.42912808 218.42912808 -51.02039114 217.34355874 -48.375 215.9375 C-45.0128655 214.31292932 -45.0128655 214.31292932 -43.5 211.9375 C-42 210 -42 210 -38.4375 208.5 C-34.53562024 206.79736156 -34.72117472 206.50283413 -33 203 C-31.1875 201.37182617 -31.1875 201.37182617 -29 199.79296875 C-28.19957275 199.20918457 -27.39914551 198.62540039 -26.57446289 198.02392578 C-25.72489014 197.41790527 -24.87531738 196.81188477 -24 196.1875 C-23.13947021 195.56601074 -22.27894043 194.94452148 -21.39233398 194.30419922 C-19.69369536 193.07953583 -17.99250846 191.85839783 -16.28857422 190.64111328 C-14.39921925 189.28627606 -12.52505299 187.91546421 -10.66015625 186.52734375 C-9.80292969 185.89957031 -8.94570313 185.27179688 -8.0625 184.625 C-7.35222656 184.10164062 -6.64195312 183.57828125 -5.91015625 183.0390625 C-4 182 -4 182 0 182 C0 149.99 0 117.98 0 85 C-19.14 85 -38.28 85 -58 85 C-58 77.74 -58 70.48 -58 63 C-38.86 63 -19.72 63 0 63 C0 42.21 0 21.42 0 0 Z M-1.5 208.6875 C-2.94612035 209.94347751 -4.39401601 211.19741409 -5.84375 212.44921875 C-6.88668213 213.35861206 -6.88668213 213.35861206 -7.95068359 214.28637695 C-9.87041594 215.89164278 -11.82882261 217.3461203 -13.8828125 218.7734375 C-16.71045879 220.79318485 -18.44201089 222.73882525 -20.5546875 225.453125 C-24.26845081 229.42785546 -29.37768647 232.07296369 -34.0625 234.75 C-34.701875 235.1625 -35.34125 235.575 -36 236 C-36 236.66 -36 237.32 -36 238 C-36.78375 237.95875 -37.5675 237.9175 -38.375 237.875 C-41.16116119 237.71271266 -41.16116119 237.71271266 -43 240 C-43 240.99 -43 241.98 -43 243 C-43.72574219 243.268125 -44.45148438 243.53625 -45.19921875 243.8125 C-47.96864024 244.98670381 -50.30919434 246.3394324 -52.8125 248 C-53.99779297 248.7734375 -53.99779297 248.7734375 -55.20703125 249.5625 C-55.79871094 250.036875 -56.39039063 250.51125 -57 251 C-57 251.66 -57 252.32 -57 253 C-57.721875 253.2475 -58.44375 253.495 -59.1875 253.75 C-62.26894735 255.11953215 -64.4060245 256.85997022 -67 259 C-68.1446875 259.67095703 -68.1446875 259.67095703 -69.3125 260.35546875 C-72.25682238 262.15715439 -74.83535501 264.18190735 -77.5 266.375 C-78.4178125 267.12523437 -79.335625 267.87546875 -80.28125 268.6484375 C-83.04736528 270.97431073 -83.04736528 270.97431073 -85.58203125 273.64453125 C-87.77621008 275.78199464 -89.46881774 276.99141425 -92.1875 278.3125 C-96.54147646 280.6246607 -100.12556812 283.41362108 -103.9140625 286.55078125 C-108.69086064 290.34198686 -113.68009285 293.83632864 -118.66772461 297.34375 C-122.82926113 300.30258492 -126.39652152 303.36502259 -130 307 C-132.16053402 308.28504806 -134.34676861 309.33247473 -136.62109375 310.3984375 C-140.30824041 312.88075298 -142.93317739 314.97133939 -145 319 C-145.8889818 324.58599861 -145.75902795 330.12423792 -145.68115234 335.76733398 C-145.67945868 337.4826298 -145.68041228 339.19792997 -145.68380737 340.91322327 C-145.68552586 345.55767209 -145.65029993 350.2011874 -145.60836363 354.84541965 C-145.57080503 359.70338098 -145.56732722 364.56136473 -145.56021118 369.41944885 C-145.5415774 378.6134068 -145.49236024 387.80693566 -145.43211424 397.00070482 C-145.36500344 407.46977291 -145.3320486 417.93886171 -145.30194163 428.40809143 C-145.23925991 449.93896692 -145.13375339 471.46945641 -145 493 C-142.80872777 493.03752243 -140.61726465 493.06397275 -138.42578125 493.0859375 C-137.20544189 493.10188965 -135.98510254 493.1178418 -134.7277832 493.13427734 C-129.8527843 492.95867649 -125.38855312 491.9066629 -120.65625 490.796875 C-108.33263518 488.11095895 -95.77008168 487.70105156 -83.2019043 487.34130859 C-81.64983276 487.29417725 -81.64983276 487.29417725 -80.06640625 487.24609375 C-79.13771729 487.22216553 -78.20902832 487.1982373 -77.25219727 487.17358398 C-74.96515746 487.13972819 -74.96515746 487.13972819 -73 486 C-71.18828902 485.84693099 -69.3716206 485.75053339 -67.5546875 485.68359375 C-66.47832031 485.64169922 -65.40195312 485.59980469 -64.29296875 485.55664062 C-63.16503906 485.51732422 -62.03710938 485.47800781 -60.875 485.4375 C-59.73933594 485.39431641 -58.60367188 485.35113281 -57.43359375 485.30664062 C-54.62252232 485.2003396 -51.81136055 485.09830595 -49 485 C-48.99857498 483.98903763 -48.99714996 482.97807526 -48.99568176 481.93647766 C-48.97893612 472.36010035 -48.93593311 462.78414386 -48.86790943 453.20798969 C-48.83377147 448.28597865 -48.8085501 443.36427365 -48.80444336 438.44213867 C-48.80013194 433.68262783 -48.77143593 428.92380584 -48.72656822 424.16451073 C-48.71368345 422.35829891 -48.70925315 420.55200427 -48.71384621 418.74575233 C-48.73324438 408.79134454 -48.32257129 400.7047561 -44.06889343 391.55143738 C-42.74240034 388.84616082 -42.74240034 388.84616082 -43 385 C-42.34 385 -41.68 385 -41 385 C-40.69449219 384.23816406 -40.38898438 383.47632813 -40.07421875 382.69140625 C-33.46297763 367.77421149 -19.61813081 360.0026141 -5 354 C-5 353.34 -5 352.68 -5 352 C-0.66593013 352.0814438 3.66679072 352.19424043 8 352.3125 C9.83111328 352.34633789 9.83111328 352.34633789 11.69921875 352.38085938 C18.51680765 352.58354445 23.78774624 353.17624829 30 356 C32.79343836 356.98549317 35.58851641 357.96562075 38.38671875 358.9375 C43.64900346 361.07702383 47.05958443 363.96576501 51 368 C52.20186813 369.00776111 53.41051008 370.00748618 54.625 371 C57.47337852 373.40447537 59.24971144 375.67445174 61 379 C61.46664062 379.55558594 61.93328125 380.11117187 62.4140625 380.68359375 C64.49452325 383.72229627 65.52358863 386.95989558 66.625 390.4375 C66.8415625 391.09298828 67.058125 391.74847656 67.28125 392.42382812 C69.34484171 398.77383101 70.15411232 404.43257075 70.20532227 411.0949707 C70.21522186 411.89549362 70.22512146 412.69601654 70.23532104 413.52079773 C70.26680277 416.15576258 70.29164055 418.79074544 70.31640625 421.42578125 C70.3369873 423.25709999 70.35798407 425.0884141 70.37937927 426.91972351 C70.43448111 431.73158004 70.48394267 436.54347859 70.53222656 441.35540771 C70.58252855 446.26887741 70.63816916 451.18228634 70.69335938 456.09570312 C70.80079548 465.73041679 70.90227257 475.3651833 71 485 C74.74545982 486.24848661 78.34528037 486.30382343 82.25390625 486.46484375 C83.93034684 486.54344292 85.60677887 486.62222497 87.28320312 486.70117188 C89.91370681 486.82012956 92.54427553 486.93671829 95.17504883 487.04956055 C112.15596899 487.78897721 112.15596899 487.78897721 119.55932617 489.52075195 C125.08720243 490.6061997 130.76221857 490.7705697 136.375 491.125 C138.23125 491.25455078 138.23125 491.25455078 140.125 491.38671875 C147.76191411 491.89316674 155.34710645 492.11152725 163 492 C163 492.66 163 493.32 163 494 C164.32 494 165.64 494 167 494 C167.87273467 482.95067405 168.187968 471.96258842 168.28125 460.8828125 C168.2991012 459.15320908 168.31738698 457.42361009 168.33607483 455.6940155 C168.37483719 452.0495787 168.41131485 448.40513011 168.4458313 444.76065063 C168.53581001 435.29475409 168.64090206 425.82901893 168.74609375 416.36328125 C168.75633009 415.43134886 168.76656643 414.49941647 168.77711296 413.5392437 C168.98182084 395.01897247 169.32134518 376.50414395 169.75823975 357.98782349 C169.83157871 354.75748448 169.89427786 351.52701274 169.95349121 348.29638672 C169.98491162 346.74499348 170.0220862 345.19370769 170.0645752 343.64257812 C170.47825322 331.46597929 170.47825322 331.46597929 167.125 319.875 C166.81546387 319.16762695 166.50592773 318.46025391 166.18701172 317.73144531 C163.19141533 311.44171729 159.22760465 308.09940878 153 305 C151.51873275 304.1913359 150.03949433 303.3789423 148.5625 302.5625 C147.83160156 302.170625 147.10070312 301.77875 146.34765625 301.375 C142.61132067 299.18666369 139.19809589 296.57993535 135.72265625 294.00390625 C133.15916437 292.1171468 130.57072273 290.28788638 127.9375 288.5 C127.22464844 288.0153125 126.51179688 287.530625 125.77734375 287.03125 C124.05415954 285.83271322 124.05415954 285.83271322 122 286 C121.96390625 285.43539062 121.9278125 284.87078125 121.890625 284.2890625 C120.5427979 280.82491038 117.73710344 279.36034299 114.75 277.375 C113.46341935 276.48904412 112.17829471 275.60097063 110.89453125 274.7109375 C110.24178223 274.26073242 109.5890332 273.81052734 108.91650391 273.34667969 C106.02461164 271.31461883 103.22736701 269.16908733 100.4375 267 C99.90898437 266.59015869 99.38046875 266.18031738 98.8359375 265.75805664 C97.76557467 264.92712564 96.69575005 264.09550088 95.62646484 263.26318359 C92.29830405 260.67838865 88.95272432 258.11604158 85.60668945 255.55444336 C83.19227248 253.70261614 80.79593845 251.83501407 78.4296875 249.921875 C75.15285891 247.27819634 72.17369372 244.8954494 68.25 243.3125 C64.92228061 241.96861332 62.74189974 240.27185979 60 238 C59.34 238 58.68 238 58 238 C58 237.01 58 236.02 58 235 C55.70976009 233.2454463 55.70976009 233.2454463 52.8125 231.625 C48.6204319 229.07237764 45.38857834 226.56692457 42 223 C36.10910134 217.85369267 36.10910134 217.85369267 29 215 C28.54625 214.38125 28.0925 213.7625 27.625 213.125 C24.92339989 209.59213832 21.12548852 208.37516284 17 207 C16.6278958 205.67696283 16.29369827 204.34262065 16 203 C8.55458742 199.27729371 3.80646062 203.93636666 -1.5 208.6875 Z " fill="#142F54" transform="translate(353,40)"/>
<path d="M0 0 C5.91015767 0.60617002 11.11209496 2.23727772 16.6875 4.25 C18.00500244 4.72143433 18.00500244 4.72143433 19.34912109 5.20239258 C21.90358623 6.12396392 24.45263699 7.05899843 27 8 C28.0206958 8.37294189 28.0206958 8.37294189 29.06201172 8.75341797 C36.33570618 11.44173221 36.33570618 11.44173221 39 13 C39.28617188 13.68707031 39.57234375 14.37414062 39.8671875 15.08203125 C40.24101563 15.71496094 40.61484375 16.34789062 41 17 C44.20297158 17.63885661 44.20297158 17.63885661 48 18 C50.98961657 18.79243674 53.89385402 19.79236615 56.8125 20.8125 C57.57498047 21.06064453 58.33746094 21.30878906 59.12304688 21.56445312 C64.64470108 23.48311812 64.64470108 23.48311812 66.51171875 26.19921875 C66.67285156 26.79347656 66.83398438 27.38773438 67 28 C59.34514304 27.04520064 52.05531053 25.26850559 44.625 23.25 C33.79139048 20.31327698 22.87702881 18.07578202 11.85205078 16.00488281 C10.01682861 15.65441895 10.01682861 15.65441895 8.14453125 15.296875 C7.05503174 15.09416992 5.96553223 14.89146484 4.84301758 14.68261719 C2.25240836 14.06060402 0.2552867 13.40270632 -2 12 C-2.33 11.34 -2.66 10.68 -3 10 C-2.34 10 -1.68 10 -1 10 C-1 9.34 -1 8.68 -1 8 C1.31 8 3.62 8 6 8 C5.28436734 5.9837767 5.28436734 5.9837767 4 4 C1.94999129 3.19471111 1.94999129 3.19471111 0 3 C0 2.01 0 1.02 0 0 Z " fill="#2A405D" transform="translate(633,559)"/>
<path d="M0 0 C0.99 0.66 1.98 1.32 3 2 C3 2.99 3 3.98 3 5 C4.32 5.66 5.64 6.32 7 7 C6.01 7.99 5.02 8.98 4 10 C1.37812506 8.95125002 0.20628639 8.35068687 -1.25 5.875 C-1.4975 5.25625 -1.745 4.6375 -2 4 C-6.23060896 5.57418008 -8.233431 7.03379352 -10.3125 10.9375 C-12.74039817 15.22939742 -15.27443064 16.38662804 -19.80078125 18.0625 C-22.03764794 19.01604885 -23.36977316 20.0310929 -25.125 21.6875 C-28.49031612 24.39438471 -30.74803099 24.74488186 -35 25 C-30.92403302 18.05575996 -24.99809637 13.92933686 -18.63818359 9.24755859 C-16.20870739 7.39739117 -13.93369924 5.37257285 -11.625 3.375 C-7.69060639 0.20189556 -5.17755349 -1.05664357 0 0 Z " fill="#ECF2F7" transform="translate(367,242)"/>
<path d="M0 0 C0.33 0 0.66 0 1 0 C1.72359197 5.19074144 2.1229044 10.17353336 2.11352539 15.42578125 C2.11367142 16.11945297 2.11381744 16.81312469 2.1139679 17.52781677 C2.11327885 19.78941121 2.10553439 22.0509202 2.09765625 24.3125 C2.09578848 25.89290319 2.09436627 27.47330696 2.09336853 29.05371094 C2.08957162 33.18989696 2.07976582 37.32604723 2.06866455 41.46221924 C2.05838932 45.69225582 2.05385788 49.92229825 2.04882812 54.15234375 C2.03814071 62.43491215 2.02109868 70.71745161 2 79 C5.96 79.33 9.92 79.66 14 80 C14.33 79.01 14.66 78.02 15 77 C15.33 77.99 15.66 78.98 16 80 C18.01508358 80.73323796 18.01508358 80.73323796 20 81 C14 82 14 82 0 82 C0 54.94 0 27.88 0 0 Z " fill="#C0CAD7" transform="translate(208,451)"/>
<path d="M0 0 C0 24.09 0 48.18 0 73 C-0.99 72.67 -1.98 72.34 -3 72 C-3 68.37 -3 64.74 -3 61 C-2.34 61 -1.68 61 -1 61 C-1.0721875 59.75992188 -1.144375 58.51984375 -1.21875 57.2421875 C-1.83891081 45.74383233 -2.10976751 34.26333907 -2.125 22.75 C-2.12749756 22.07998962 -2.12999512 21.40997925 -2.13256836 20.71966553 C-2.13843282 18.80791101 -2.13580313 16.89613617 -2.1328125 14.984375 C-2.13168457 13.87803711 -2.13055664 12.77169922 -2.12939453 11.63183594 C-2 9 -2 9 -1 7 C-6.445 8.485 -6.445 8.485 -12 10 C-12.33 8.68 -12.66 7.36 -13 6 C-5.8 0 -5.8 0 0 0 Z " fill="#EAF1FB" transform="translate(185,379)"/>
<path d="M0 0 C1.63074463 0.07976074 1.63074463 0.07976074 3.29443359 0.16113281 C11.92540467 0.78447323 11.92540467 0.78447323 15.05078125 3.76953125 C16.8125 6.3125 16.8125 6.3125 16.8125 8.3125 C15.08232492 7.85798816 13.35340123 7.39871143 11.625 6.9375 C10.66207031 6.68226563 9.69914062 6.42703125 8.70703125 6.1640625 C5.8125 5.3125 5.8125 5.3125 3.53125 4.28515625 C0.3784349 3.15720947 -2.23788369 2.99353174 -5.58203125 2.8984375 C-6.78408203 2.85976563 -7.98613281 2.82109375 -9.22460938 2.78125 C-11.09342773 2.73484375 -11.09342773 2.73484375 -13 2.6875 C-14.26521484 2.64882813 -15.53042969 2.61015625 -16.83398438 2.5703125 C-19.95167851 2.47619343 -23.06936914 2.39055639 -26.1875 2.3125 C-26.1875 2.9725 -26.1875 3.6325 -26.1875 4.3125 C-30.1475 5.9625 -34.1075 7.6125 -38.1875 9.3125 C-38.8475 7.6625 -39.5075 6.0125 -40.1875 4.3125 C-39.1975 4.3125 -38.2075 4.3125 -37.1875 4.3125 C-36.8575 3.3225 -36.5275 2.3325 -36.1875 1.3125 C-25.07062693 -2.84593132 -11.62792783 -0.72894998 0 0 Z " fill="#DFE7EF" transform="translate(374.1875,389.6875)"/>
<path d="M0 0 C1.07636719 0.00322266 2.15273438 0.00644531 3.26171875 0.00976562 C4.38964844 0.01814453 5.51757812 0.02652344 6.6796875 0.03515625 C8.38318359 0.04192383 8.38318359 0.04192383 10.12109375 0.04882812 C12.93234388 0.0606401 15.7434898 0.07711118 18.5546875 0.09765625 C18.5546875 0.42765625 18.5546875 0.75765625 18.5546875 1.09765625 C16.5746875 1.09765625 14.5946875 1.09765625 12.5546875 1.09765625 C12.5546875 1.75765625 12.5546875 2.41765625 12.5546875 3.09765625 C6.26461544 3.53449908 -0.02604513 3.96117326 -6.31738281 4.37939453 C-8.44679274 4.52227148 -10.57603463 4.66768083 -12.70507812 4.81591797 C-27.31068231 5.83057951 -41.80471937 6.29371131 -56.4453125 6.09765625 C-56.4453125 5.76765625 -56.4453125 5.43765625 -56.4453125 5.09765625 C-42.72721214 3.12680334 -29.15673774 1.74333414 -15.29516602 1.38891602 C-14.29541748 1.36240967 -13.29566895 1.33590332 -12.265625 1.30859375 C-11.38148926 1.29103027 -10.49735352 1.2734668 -9.58642578 1.25537109 C-6.19602513 1.00563349 -3.59001363 -0.01889481 0 0 Z " fill="#32475F" transform="translate(285.4453125,524.90234375)"/>
<path d="M0 0 C-0.33 0.99 -0.66 1.98 -1 3 C0.32 3.33 1.64 3.66 3 4 C-0.14175409 4.9925859 -3.2890103 5.966512 -6.4375 6.9375 C-7.31599609 7.21529297 -8.19449219 7.49308594 -9.09960938 7.77929688 C-14.76755648 9.5152364 -20.0889531 10.52495147 -26 11 C-24.47300323 7.69451096 -23.53819308 6.39978958 -20.1875 4.875 C-19.10855469 4.38 -19.10855469 4.38 -18.0078125 3.875 C-17.34523438 3.58625 -16.68265625 3.2975 -16 3 C-14.7934375 2.443125 -14.7934375 2.443125 -13.5625 1.875 C-3.27536232 -1.63768116 -3.27536232 -1.63768116 0 0 Z " fill="#3B4B61" transform="translate(54,576)"/>
<path d="M0 0 C0.59167969 0.40992188 1.18335938 0.81984375 1.79296875 1.2421875 C2.58316406 1.78101563 3.37335938 2.31984375 4.1875 2.875 C4.96480469 3.40867187 5.74210937 3.94234375 6.54296875 4.4921875 C8.90869881 6.05454054 8.90869881 6.05454054 11.375 6.875 C14.97325343 8.41710861 17.76414412 10.6985495 20.8125 13.125 C21.40998047 13.59292969 22.00746094 14.06085938 22.62304688 14.54296875 C24.08616792 15.69005565 25.54366297 16.84431234 27 18 C26.34 18.99 25.68 19.98 25 21 C20.27511859 20.71364355 18.00911788 18.50991463 14.74609375 15.375 C12.82876372 13.86515622 11.38192974 13.41696801 9 13 C9 11.68 9 10.36 9 9 C8.34 9 7.68 9 7 9 C7 8.34 7 7.68 7 7 C6.01 7 5.02 7 4 7 C1.8125 5.1875 1.8125 5.1875 0 3 C0 2.01 0 1.02 0 0 Z " fill="#E0E8EF" transform="translate(412,278)"/>
<path d="M0 0 C2.97 0.495 2.97 0.495 6 1 C2.76846992 4.33924775 -0.58933201 7.53135948 -4 10.6875 C-4.825 11.45449219 -5.65 12.22148437 -6.5 13.01171875 C-8.97827474 14.98272163 -11.06114775 15.90212534 -14 17 C-15.79761054 18.24035918 -15.79761054 18.24035918 -17.3125 19.625 C-18.199375 20.40875 -19.08625 21.1925 -20 22 C-20.66 21.67 -21.32 21.34 -22 21 C-19.87079058 15.73960025 -16.95069154 11.83045866 -12 9 C-8.5625 9.125 -8.5625 9.125 -6 10 C-5.7525 9.278125 -5.505 8.55625 -5.25 7.8125 C-3.89016326 4.75286734 -2.17082246 2.5326262 0 0 Z " fill="#E1E8EE" transform="translate(165,355)"/>
<path d="M0 0 C0.66 0.33 1.32 0.66 2 1 C1.67 1.99 1.34 2.98 1 4 C0.835 4.680625 0.67 5.36125 0.5 6.0625 C0 8 0 8 -1 10 C-2.98636298 10.70626239 -4.98848259 11.36893571 -7 12 C-10.99244176 13.64394661 -14.04462752 16.08925505 -16 20 C-16.5775 19.773125 -17.155 19.54625 -17.75 19.3125 C-20.12172477 18.73494807 -20.12172477 18.73494807 -22.25 20.4375 C-23.11625 21.2109375 -23.11625 21.2109375 -24 22 C-22.60651207 16.73571228 -19.30847324 14.02348999 -15 11 C-12.95563814 9.93403851 -10.8821648 8.96964264 -8.7890625 8.00390625 C-6.16720918 6.53269162 -4.71981616 4.42048201 -3 2 C-2.01 1.34 -1.02 0.68 0 0 Z " fill="#D5DEE6" transform="translate(232,339)"/>
<path d="M0 0 C5.16043595 0.68203214 9.85311435 2.12000865 14.75 3.8125 C15.51699219 4.06064453 16.28398438 4.30878906 17.07421875 4.56445312 C22.648073 6.48934304 22.648073 6.48934304 24.515625 9.19921875 C24.67546875 9.79347656 24.8353125 10.38773438 25 11 C14.42135126 9.58529049 4.27572937 6.81615177 -6 4 C-6 3.67 -6 3.34 -6 3 C-4.02 3 -2.04 3 0 3 C0 2.01 0 1.02 0 0 Z " fill="#3E485B" transform="translate(675,576)"/>
<path d="M0 0 C0.81210937 0.46019531 0.81210937 0.46019531 1.640625 0.9296875 C4.34450508 2.15628211 6.82462658 2.63743776 9.75 3.125 C10.73484375 3.29257812 11.7196875 3.46015625 12.734375 3.6328125 C13.85585938 3.81457031 13.85585938 3.81457031 15 4 C11.93882432 6.62386487 11.26826873 7 7 7 C6.67 8.65 6.34 10.3 6 12 C5.360625 12.12375 4.72125 12.2475 4.0625 12.375 C3.381875 12.58125 2.70125 12.7875 2 13 C1.67 13.66 1.34 14.32 1 15 C-1.64 15 -4.28 15 -7 15 C-7.33 14.34 -7.66 13.68 -8 13 C-7.05125 13.020625 -6.1025 13.04125 -5.125 13.0625 C-2.09333717 13.22551826 -2.09333717 13.22551826 0 12 C-0.99 11.34 -1.98 10.68 -3 10 C-2.67 8.68 -2.34 7.36 -2 6 C-1.34 6 -0.68 6 0 6 C0 4.02 0 2.04 0 0 Z " fill="#264062" transform="translate(612,552)"/>
<path d="M0 0 C0.66 0.66 1.32 1.32 2 2 C-1.08809695 3.76462683 -2.23312136 4 -6 4 C-6 5.32 -6 6.64 -6 8 C-11.94 8.495 -11.94 8.495 -18 9 C-18.33 8.01 -18.66 7.02 -19 6 C-21.64 6.33 -24.28 6.66 -27 7 C-27 6.34 -27 5.68 -27 5 C-21.06 4.505 -21.06 4.505 -15 4 C-15 3.34 -15 2.68 -15 2 C-5.00312891 -0.48811014 -5.00312891 -0.48811014 0 0 Z " fill="#E0E6EB" transform="translate(96,570)"/>
<path d="M0 0 C0.99 0.66 1.98 1.32 3 2 C3 2.99 3 3.98 3 5 C4.32 5.66 5.64 6.32 7 7 C6.01 7.99 5.02 8.98 4 10 C1.37812506 8.95125002 0.20628639 8.35068687 -1.25 5.875 C-1.4975 5.25625 -1.745 4.6375 -2 4 C-6.32371893 6.02633069 -6.32371893 6.02633069 -10 9 C-13.625 9.125 -13.625 9.125 -17 9 C-7.44568245 -0.82729805 -7.44568245 -0.82729805 0 0 Z " fill="#D7E2E9" transform="translate(367,242)"/>
<path d="M0 0 C10.56 0 21.12 0 32 0 C32 0.66 32 1.32 32 2 C26.08218663 4.06189931 20.79581786 4.24167838 14.5625 4.125 C13.64017578 4.11597656 12.71785156 4.10695313 11.76757812 4.09765625 C9.51144191 4.0742766 7.25586316 4.04150916 5 4 C4.67 3.34 4.34 2.68 4 2 C2.68 1.34 1.36 0.68 0 0 Z " fill="#C4CFDA" transform="translate(404,546)"/>
<path d="M0 0 C9.75850309 -0.11788796 19.49712459 0.0099937 29.25 0.375 C30.73125366 0.4212854 30.73125366 0.4212854 32.24243164 0.46850586 C40.86316 0.82550718 40.86316 0.82550718 45 3 C45 3.33 45 3.66 45 4 C29.86859415 4.18328755 14.89333219 3.95570947 0 1 C0 0.67 0 0.34 0 0 Z " fill="#C3CBD9" transform="translate(462,549)"/>
<path d="M0 0 C4.90267124 1.35449175 8.33715321 3.42924244 12.375 6.5 C12.92027344 6.90347656 13.46554687 7.30695313 14.02734375 7.72265625 C15.39449727 8.76087058 16.70313753 9.87521314 18 11 C18 11.66 18 12.32 18 13 C14.18243176 14.37432457 10.92744671 13.67975039 7 13 C6.87625 12.360625 6.7525 11.72125 6.625 11.0625 C6.41875 10.381875 6.2125 9.70125 6 9 C5.34 8.67 4.68 8.34 4 8 C4 7.01 4 6.02 4 5 C3.01 5.33 2.02 5.66 1 6 C0.67 4.02 0.34 2.04 0 0 Z " fill="#E3EBF1" transform="translate(381,255)"/>
<path d="M0 0 C0.33 0 0.66 0 1 0 C1 19.14 1 38.28 1 58 C0.01 57.67 -0.98 57.34 -2 57 C-1.34 38.19 -0.68 19.38 0 0 Z " fill="#E9EFFC" transform="translate(184,480)"/>
<path d="M0 0 C3.34713473 0.46704206 6.46647366 1.36448193 9.6875 2.375 C9.3575 3.695 9.0275 5.015 8.6875 6.375 C3.20074804 8.24283046 -1.53442976 8.6108396 -7.3125 8.375 C-6.39509193 4.00813758 -4.75283198 0.77072951 0 0 Z " fill="#192D4A" transform="translate(60.3125,570.625)"/>
<path d="M0 0 C1.45742463 -0.08096803 2.91612807 -0.13917774 4.375 -0.1875 C5.18710938 -0.22230469 5.99921875 -0.25710938 6.8359375 -0.29296875 C7.55007812 -0.19628906 8.26421875 -0.09960938 9 0 C9.66 0.99 10.32 1.98 11 3 C4.73822359 5.69295603 -1.29963539 7.74697906 -8 9 C-9.010625 9.20625 -10.02125 9.4125 -11.0625 9.625 C-11.701875 9.74875 -12.34125 9.8725 -13 10 C-11.91897181 6.86501824 -11.02159388 6.0131441 -8.125 4.25 C-5 3 -5 3 -1 3 C-0.67 2.01 -0.34 1.02 0 0 Z " fill="#E6EEF3" transform="translate(75,560)"/>
<path d="M0 0 C0 0.66 0 1.32 0 2 C-0.556875 2.20625 -1.11375 2.4125 -1.6875 2.625 C-4.30221871 4.17969761 -5.8282704 6.11486031 -7.71484375 8.46875 C-10.39716609 11.66470854 -12.58021385 13.87379679 -16.8125 14.25 C-17.534375 14.1675 -18.25625 14.085 -19 14 C-18.34194763 10.44651721 -17.25753134 7.84012008 -15 5 C-13.01231833 4.02898223 -11.05018439 3.32799253 -8.9375 2.67578125 C-1.26589595 0 -1.26589595 0 0 0 Z " fill="#DCE3ED" transform="translate(249,297)"/>
<path d="M0 0 C2.475 0.495 2.475 0.495 5 1 C3.33333333 2.66666667 1.66666667 4.33333333 0 6 C-0.825 6.86625 -1.65 7.7325 -2.5 8.625 C-4.88688095 10.8925369 -7.16727456 12.36000106 -10 14 C-10.495 14.53625 -10.99 15.0725 -11.5 15.625 C-13.51536084 17.4724141 -15.33833049 17.64031493 -18 18 C-17.67 16.68 -17.34 15.36 -17 14 C-16.21625 13.938125 -15.4325 13.87625 -14.625 13.8125 C-13.325625 13.4103125 -13.325625 13.4103125 -12 13 C-11.70996094 12.22398437 -11.41992188 11.44796875 -11.12109375 10.6484375 C-9.75382865 7.41845234 -8.41026459 6.5923414 -5.4375 4.8125 C-2.12286756 2.96444355 -2.12286756 2.96444355 0 0 Z " fill="#D8E2EC" transform="translate(286,264)"/>
<path d="M0 0 C-1.75 3.875 -1.75 3.875 -4 5 C-5.44848582 5.08342159 -6.90070869 5.10732861 -8.3515625 5.09765625 C-9.20234375 5.09443359 -10.053125 5.09121094 -10.9296875 5.08789062 C-11.81914062 5.07951172 -12.70859375 5.07113281 -13.625 5.0625 C-14.5221875 5.05798828 -15.419375 5.05347656 -16.34375 5.04882812 C-18.56256648 5.03702591 -20.78125018 5.02056155 -23 5 C-22.34 4.67 -21.68 4.34 -21 4 C-21 3.34 -21 2.68 -21 2 C-13.94887561 -0.21211746 -7.35342179 -0.20177072 0 0 Z " fill="#D9E3EA" transform="translate(282,522)"/>
<path d="M0 0 C5.66021072 2.5818505 10.75219392 5.35396211 15 10 C15 10.66 15 11.32 15 12 C7.62711864 12.49152542 7.62711864 12.49152542 4.6875 10.1875 C4.130625 9.465625 3.57375 8.74375 3 8 C1.30903512 6.24399801 0.18552242 5.09276121 -2 4 C-1.34 2.68 -0.68 1.36 0 0 Z " fill="#223654" transform="translate(500,314)"/>
<path d="M0 0 C3.63 0 7.26 0 11 0 C10.34 0.66 9.68 1.32 9 2 C8.01 2 7.02 2 6 2 C6 2.99 6 3.98 6 5 C5.154375 4.97679687 4.30875 4.95359375 3.4375 4.9296875 C-3.95623265 4.71931693 -3.95623265 4.71931693 -11.1875 6 C-15.88172364 7.23127177 -20.18036314 7.17777349 -25 7 C-16.87118927 2.83093183 -9.03764978 2.47632551 0 2 C0 1.34 0 0.68 0 0 Z " fill="#BBC4D1" transform="translate(125,564)"/>
<path d="M0 0 C4.89289165 -0.1238948 9.78486427 -0.21447509 14.67895508 -0.2746582 C16.34252839 -0.29975347 18.00599196 -0.33383796 19.66918945 -0.37719727 C22.06489153 -0.4380746 24.45913251 -0.46625769 26.85546875 -0.48828125 C27.96513252 -0.52699089 27.96513252 -0.52699089 29.09721375 -0.56648254 C33.12672729 -0.56865541 34.8195593 -0.14425008 38.0090332 2.40551758 C40 5 40 5 40 7 C38.26982492 6.54548816 36.54090123 6.08621143 34.8125 5.625 C33.84957031 5.36976563 32.88664062 5.11453125 31.89453125 4.8515625 C29 4 29 4 26.67773438 2.97265625 C23.73940597 1.90534221 21.37988223 1.68598553 18.26171875 1.5859375 C17.19501953 1.54726563 16.12832031 1.50859375 15.02929688 1.46875 C13.92650391 1.4378125 12.82371094 1.406875 11.6875 1.375 C10.56537109 1.33632813 9.44324219 1.29765625 8.28710938 1.2578125 C5.52490148 1.16377989 2.762696 1.07812659 0 1 C0 0.67 0 0.34 0 0 Z " fill="#B4BFCB" transform="translate(351,391)"/>
<path d="M0 0 C1.17949219 0.01804687 2.35898437 0.03609375 3.57421875 0.0546875 C4.92966797 0.08949219 4.92966797 0.08949219 6.3125 0.125 C5.6525 2.105 4.9925 4.085 4.3125 6.125 C-1.97010706 6.35768915 -7.56769467 5.52954548 -13.6875 4.125 C-12.7903125 3.691875 -12.7903125 3.691875 -11.875 3.25 C-7.25048059 0.87167573 -5.34619755 -0.1058653 0 0 Z " fill="#D0DAE1" transform="translate(478.6875,523.875)"/>
<path d="M0 0 C2.63195003 0.23517424 5.26347957 0.47368438 7.89453125 0.71875 C9.89069875 0.89953498 11.88811158 1.06729939 13.88671875 1.21875 C15.21123047 1.32703125 15.21123047 1.32703125 16.5625 1.4375 C17.36816406 1.49808594 18.17382812 1.55867187 19.00390625 1.62109375 C21 2 21 2 23 4 C17.99886164 6.97203688 12.64015167 6.75005928 7 6 C4.06718821 4.63886198 2.40192359 3.23815607 0 1 C0 0.67 0 0.34 0 0 Z " fill="#D5DCE6" transform="translate(609,567)"/>
<path d="M0 0 C0.33 0.66 0.66 1.32 1 2 C0.01 3.485 0.01 3.485 -1 5 C-1 6.32 -1 7.64 -1 9 C-2.24891614 9.48198463 -3.49918808 9.96045677 -4.75 10.4375 C-5.79414063 10.83775391 -5.79414063 10.83775391 -6.859375 11.24609375 C-10.47613666 12.51988025 -13.10280536 13 -17 13 C-17.66 13.66 -18.32 14.32 -19 15 C-18.125 11.125 -18.125 11.125 -17 10 C-15.33382885 9.95936168 -13.66611905 9.957279 -12 10 C-11.79375 9.401875 -11.5875 8.80375 -11.375 8.1875 C-9.48004767 5.17280311 -7.19653088 4.4704042 -4 3 C-2.64136599 2.03465478 -1.29656863 1.04722851 0 0 Z " fill="#DCE4EA" transform="translate(329,268)"/>
<path d="M0 0 C0 0.66 0 1.32 0 2 C-8.31075585 4.9618784 -17.27077316 7.03005275 -26 5 C-26 4.34 -26 3.68 -26 3 C-17.38552249 1.07529027 -8.84025824 -0.0952272 0 0 Z " fill="#0E2746" transform="translate(244,530)"/>
<path d="M0 0 C1.96962114 0.84928618 3.92548813 1.73051808 5.875 2.625 C6.96554687 3.11226563 8.05609375 3.59953125 9.1796875 4.1015625 C12.59669851 6.40165578 13.12650584 8.05269095 14 12 C11.75 12.75 11.75 12.75 9 13 C6.71032629 11.15554062 5.31318776 9.62637553 4 7 C1.97536745 6.34786708 1.97536745 6.34786708 0 6 C0 4.02 0 2.04 0 0 Z " fill="#E1E7EF" transform="translate(497,341)"/>
<path d="M0 0 C-0.6496875 0.5878125 -0.6496875 0.5878125 -1.3125 1.1875 C-3.14164898 3.00305796 -3.14164898 3.00305796 -4.4375 5.625 C-6 8 -6 8 -8 8.625 C-8.66 8.74875 -9.32 8.8725 -10 9 C-11.02019573 9.9793879 -12.02149805 10.97895449 -13 12 C-13.99 12.33 -14.98 12.66 -16 13 C-16.66 12.67 -17.32 12.34 -18 12 C-16.54403414 8.46519517 -14.70852557 6.68011867 -11.6875 4.375 C-10.92824219 3.78460938 -10.16898438 3.19421875 -9.38671875 2.5859375 C-3.13562895 -1.56781448 -3.13562895 -1.56781448 0 0 Z " fill="#263A58" transform="translate(201,337)"/>
<path d="M0 0 C3.02600532 1.51300266 3.58742015 3.99826782 5 7 C5.391875 7.78375 5.78375 8.5675 6.1875 9.375 C6.455625 9.91125 6.72375 10.4475 7 11 C1.40482341 9.56533934 -3.64939283 6.79953026 -8 3 C-8 2.01 -8 1.02 -8 0 C-4.67803635 -1.10732122 -3.31749961 -0.85064093 0 0 Z " fill="#283D5D" transform="translate(419,275)"/>
<path d="M0 0 C0.66 0 1.32 0 2 0 C1.06522885 5.63290664 -3.36697025 8.05799163 -7.7265625 11.2734375 C-11.65203901 14 -11.65203901 14 -14 14 C-14 12.35 -14 10.7 -14 9 C-12.68 9 -11.36 9 -10 9 C-10 7.68 -10 6.36 -10 5 C-4.375 2 -4.375 2 -1 2 C-0.67 1.34 -0.34 0.68 0 0 Z " fill="#223553" transform="translate(334,260)"/>
<path d="M0 0 C1.52519276 0.08937803 3.04681929 0.24537146 4.5625 0.4375 C5.38878906 0.53933594 6.21507813 0.64117188 7.06640625 0.74609375 C7.70449219 0.82988281 8.34257813 0.91367187 9 1 C2.15668132 5.56221246 -4.86009895 7.47484509 -13 8 C-12.34 7.67 -11.68 7.34 -11 7 C-11 5.68 -11 4.36 -11 3 C-10.28972656 2.86722656 -9.57945313 2.73445312 -8.84765625 2.59765625 C-7.92855469 2.42105469 -7.00945312 2.24445312 -6.0625 2.0625 C-5.14597656 1.88847656 -4.22945312 1.71445312 -3.28515625 1.53515625 C-1.04710156 1.22285012 -1.04710156 1.22285012 0 0 Z " fill="#CED4DE" transform="translate(107,551)"/>
<path d="M0 0 C0.33 1.65 0.66 3.3 1 5 C-7.261959 12.66742597 -7.261959 12.66742597 -12 14 C-10.56317792 8.51395204 -6.70097367 0 0 0 Z " fill="#D6DFE7" transform="translate(342,421)"/>
<path d="M0 0 C-2.81116928 4.21675392 -5.5538727 6.02897698 -10.02734375 8.0859375 C-12.46471476 9.21533318 -14.72385355 10.57740847 -17 12 C-16.78600145 8.25502546 -16.07843077 7.07843077 -13.375 4.375 C-9.35418236 1.31336536 -5.0583326 -1.68611087 0 0 Z " fill="#DAE3ED" transform="translate(205,331)"/>
<path d="M0 0 C5.60461531 0.42089996 10.72086547 0.91613111 16 3 C16.33 2.67 16.66 2.34 17 2 C19.65463121 1.54540142 22.32189138 1.29756762 25 1 C25 1.66 25 2.32 25 3 C22.69 3 20.38 3 18 3 C18 3.66 18 4.32 18 5 C11.29481414 5.19818283 5.34823202 5.30844801 -1 3 C-0.67 2.01 -0.34 1.02 0 0 Z " fill="#1C314D" transform="translate(614,564)"/>
<path d="M0 0 C4.98748002 0.4749981 8.06964437 1.89227695 12 5 C12.33 5.99 12.66 6.98 13 8 C12 9 12 9 9.93359375 9.09765625 C6.46679688 9.04882812 6.46679688 9.04882812 3 9 C2.01 6.03 1.02 3.06 0 0 Z " fill="#E7EDF3" transform="translate(378,417)"/>
<path d="M0 0 C-0.33 1.65 -0.66 3.3 -1 5 C-3.64 5 -6.28 5 -9 5 C-9.433125 3.824375 -9.433125 3.824375 -9.875 2.625 C-10.84912254 -0.09671632 -10.84912254 -0.09671632 -13 -2 C-8.14228642 -3.68151624 -4.2079058 -2.80527053 0 0 Z " fill="#28426C" transform="translate(166,544)"/>
<path d="M0 0 C0.66 0.33 1.32 0.66 2 1 C1.01 2.485 1.01 2.485 0 4 C-0.66 4 -1.32 4 -2 4 C-2.2475 4.78375 -2.495 5.5675 -2.75 6.375 C-4 9 -4 9 -5.6875 10.3125 C-8.83356663 11.2478171 -11.73924509 11.12541365 -15 11 C-10.66676952 6.40414949 -6.08055683 2.02685228 0 0 Z " fill="#263C59" transform="translate(273,280)"/>
<path d="M0 0 C4.63547505 3.17861146 7.66506533 6.9215171 10 12 C10.3125 15.5 10.3125 15.5 10 18 C9.67 17.34 9.34 16.68 9 16 C8.20207031 15.7525 7.40414063 15.505 6.58203125 15.25 C4 14 4 14 2.63671875 11.25 C2.32347656 10.1775 2.01023437 9.105 1.6875 8 C1.36136719 6.9275 1.03523438 5.855 0.69921875 4.75 C0 2 0 2 0 0 Z " fill="#CFDBE6" transform="translate(391,425)"/>
<path d="M0 0 C0.56203125 0.23589844 1.1240625 0.47179687 1.703125 0.71484375 C1.515625 3.02734375 1.515625 3.02734375 0.703125 5.71484375 C-2.90766757 8.70664331 -5.69298604 9.03604531 -10.296875 8.71484375 C-10.626875 8.05484375 -10.956875 7.39484375 -11.296875 6.71484375 C-9.89314698 5.5120768 -8.47335403 4.32803856 -7.046875 3.15234375 C-6.25796875 2.49105469 -5.4690625 1.82976562 -4.65625 1.1484375 C-2.296875 -0.28515625 -2.296875 -0.28515625 0 0 Z " fill="#253C5A" transform="translate(154.296875,370.28515625)"/>
<path d="M0 0 C0.31785906 3.49644963 0.39644605 5.397402 -1.5625 8.375 C-4.81682503 10.54455002 -7.17130414 10.29451507 -11 10 C-11 9.01 -11 8.02 -11 7 C-10.195625 6.731875 -9.39125 6.46375 -8.5625 6.1875 C-7.716875 5.795625 -6.87125 5.40375 -6 5 C-5.67 4.01 -5.34 3.02 -5 2 C-2 0 -2 0 0 0 Z " fill="#DCE2EB" transform="translate(302,288)"/>
<path d="M0 0 C0.3125 2.25 0.3125 2.25 0 5 C-2.25 7.3125 -2.25 7.3125 -5 9 C-6.32 9 -7.64 9 -9 9 C-9.36 3.6 -9.36 3.6 -7.875 1.125 C-5.21965017 -0.4682099 -3.03210482 -0.20214032 0 0 Z " fill="#E0E9EF" transform="translate(320,241)"/>
<path d="M0 0 C6.75 0.875 6.75 0.875 9 2 C9 1.34 9 0.68 9 0 C14.5 -0.36666667 14.5 -0.36666667 16.875 1.375 C18 3 18 3 18 5 C18.66 5.33 19.32 5.66 20 6 C17.4363053 5.71681868 14.87438474 5.42377507 12.3125 5.125 C11.59126953 5.04636719 10.87003906 4.96773437 10.12695312 4.88671875 C6.11484068 4.4103949 2.70024488 3.73699858 -1 2 C-0.67 1.34 -0.34 0.68 0 0 Z " fill="#C7CFDB" transform="translate(575,542)"/>
<path d="M0 0 C0.66 0.33 1.32 0.66 2 1 C1.3503125 1.8353125 1.3503125 1.8353125 0.6875 2.6875 C-1.0506796 4.9879895 -1.0506796 4.9879895 -2.5 7.5625 C-4.94117647 11.52941176 -4.94117647 11.52941176 -7 13 C-10.6875 13.6875 -10.6875 13.6875 -14 14 C-10.18749455 7.97378171 -5.7766488 4.14056091 0 0 Z " fill="#DCE5ED" transform="translate(346,253)"/>
<path d="M0 0 C0.33 0.66 0.66 1.32 1 2 C1.99 2 2.98 2 4 2 C4.33 2.99 4.66 3.98 5 5 C-0.10334017 6.905247 -4.46342706 8.42589023 -10 8 C-8.60344703 4.50126729 -7.28739516 3.29108169 -3.875 1.75 C-3.15054688 1.41484375 -2.42609375 1.0796875 -1.6796875 0.734375 C-1.12539063 0.49203125 -0.57109375 0.2496875 0 0 Z " fill="#5E6574" transform="translate(38,579)"/>
<path d="M0 0 C3.3 0 6.6 0 10 0 C10 1.32 10 2.64 10 4 C5.64667264 4.84023188 1.55557481 5.10770995 -2.875 5.0625 C-4.02742188 5.05347656 -5.17984375 5.04445313 -6.3671875 5.03515625 C-7.23601562 5.02355469 -8.10484375 5.01195312 -9 5 C-9 4.34 -9 3.68 -9 3 C-6.03 3 -3.06 3 0 3 C0 2.01 0 1.02 0 0 Z " fill="#112642" transform="translate(115,562)"/>
<path d="M0 0 C-0.33 1.32 -0.66 2.64 -1 4 C-8.92 3.67 -16.84 3.34 -25 3 C-25 2.67 -25 2.34 -25 2 C-16.60182604 0.08041738 -8.59599799 -0.22588024 0 0 Z " fill="#D1D8E4" transform="translate(217,553)"/>
<path d="M0 0 C0.66 1.32 1.32 2.64 2 4 C-1.3119737 5.93463848 -4.19736626 6.45600309 -8 6.8125 C-9.546875 6.97685547 -9.546875 6.97685547 -11.125 7.14453125 C-14 7 -14 7 -18 4 C-13.38 3.67 -8.76 3.34 -4 3 C-4 2.34 -4 1.68 -4 1 C-2.68 0.67 -1.36 0.34 0 0 Z " fill="#3B4F69" transform="translate(150,543)"/>
<path d="M0 0 C4.00087999 1.33362666 6.09283814 3.00198933 9 6 C9.886875 6.515625 10.77375 7.03125 11.6875 7.5625 C14 9 14 9 15 12 C10.48521602 11.46884894 7.65333143 9.63379708 4 7 C3.67 7.99 3.34 8.98 3 10 C-0.00617269 6.99382731 0.40414684 4.17618402 0 0 Z " fill="#DBE3EA" transform="translate(543,377)"/>
<path d="M0 0 C0.66 0.33 1.32 0.66 2 1 C-0.97 3.97 -0.97 3.97 -4 7 C-3.01 8.485 -3.01 8.485 -2 10 C-2.8971875 10.3403125 -2.8971875 10.3403125 -3.8125 10.6875 C-6.56351888 12.33811133 -7.52484637 14.1972081 -9 17 C-10.32 16.67 -11.64 16.34 -13 16 C-10.05960949 8.84078832 -5.99550567 4.81690199 0 0 Z " fill="#283E60" transform="translate(326,405)"/>
<path d="M0 0 C1.12148438 0.00322266 2.24296875 0.00644531 3.3984375 0.00976562 C4.5740625 0.01814453 5.7496875 0.02652344 6.9609375 0.03515625 C8.14429688 0.03966797 9.32765625 0.04417969 10.546875 0.04882812 C13.47661257 0.06064158 16.40625022 0.07711367 19.3359375 0.09765625 C19.3359375 0.42765625 19.3359375 0.75765625 19.3359375 1.09765625 C13.3959375 1.09765625 7.4559375 1.09765625 1.3359375 1.09765625 C1.0059375 2.41765625 0.6759375 3.73765625 0.3359375 5.09765625 C-4.13245465 5.31043683 -7.48668776 4.6890371 -11.6640625 3.09765625 C-7.37614435 0.95369717 -4.87060178 -0.024599 0 0 Z " fill="#B7C2D1" transform="translate(259.6640625,547.90234375)"/>
<path d="M0 0 C-0.66 0 -1.32 0 -2 0 C-2 1.32 -2 2.64 -2 4 C-5.14509642 6.50178124 -7.98720812 8.3826474 -12 9 C-12.33 7.68 -12.66 6.36 -13 5 C-4.9 -1.75 -4.9 -1.75 0 0 Z " fill="#D6DFE9" transform="translate(185,380)"/>
<path d="M0 0 C2.34206251 0.26513915 4.67612053 0.60612212 7 1 C8.66628955 1.03545297 10.33409803 1.05048188 12 1 C12.33 1.99 12.66 2.98 13 4 C11.02 4 9.04 4 7 4 C7 4.66 7 5.32 7 6 C4.36 6 1.72 6 -1 6 C-1.625 4.125 -1.625 4.125 -2 2 C-1.34 1.34 -0.68 0.68 0 0 Z " fill="#0E2445" transform="translate(649,568)"/>
<path d="M0 0 C0 1.32 0 2.64 0 4 C-0.66 4 -1.32 4 -2 4 C-2.12375 4.763125 -2.2475 5.52625 -2.375 6.3125 C-3 9 -3 9 -5 12 C-5.99 12 -6.98 12 -8 12 C-7.91253716 10.56138706 -7.80434652 9.12402492 -7.6875 7.6875 C-7.62949219 6.88699219 -7.57148438 6.08648437 -7.51171875 5.26171875 C-6.45438403 0.5884607 -4.66174692 0 0 0 Z " fill="#0B2448" transform="translate(406,409)"/>
<path d="M0 0 C3.80133442 1.67923025 6.97082702 4.11462834 10.25 6.625 C10.80429687 7.04523438 11.35859375 7.46546875 11.9296875 7.8984375 C13.28866663 8.92938719 14.64463835 9.96429911 16 11 C15.360625 11.12375 14.72125 11.2475 14.0625 11.375 C13.381875 11.58125 12.70125 11.7875 12 12 C11.67 12.66 11.34 13.32 11 14 C10.835 13.236875 10.67 12.47375 10.5 11.6875 C8.74508125 8.54327058 8.22437575 8.53856686 4.9375 7.5625 C2.77734375 6.890625 2.77734375 6.890625 1 6 C0 2.8125 0 2.8125 0 0 Z " fill="#D3DEE8" transform="translate(559,389)"/>
<path d="M0 0 C6.27 0 12.54 0 19 0 C18.34 1.32 17.68 2.64 17 4 C10.54107286 4.40368295 5.93891422 3.5915262 0 1 C0 0.67 0 0.34 0 0 Z " fill="#E7EDF4" transform="translate(496,553)"/>
<path d="M0 0 C0.66 0.33 1.32 0.66 2 1 C1.84518205 3.70931419 1.51827919 5.46584039 -0.40234375 7.4453125 C-1.89771708 8.67679642 -3.4462924 9.8429837 -5 11 C-7.475 10.01 -7.475 10.01 -10 9 C-6.83047153 5.73991357 -3.60062011 2.77762123 0 0 Z " fill="#293D5B" transform="translate(291,265)"/>
<path d="M0 0 C1.051875 -0.00386719 1.051875 -0.00386719 2.125 -0.0078125 C4 0.125 4 0.125 6 1.125 C6 2.115 6 3.105 6 4.125 C1.32798795 5.33068053 -3.21496292 5.21882426 -8 5.125 C-6.04422224 0.79434924 -4.70931171 -0.01731365 0 0 Z " fill="#E6EDF2" transform="translate(140,541.875)"/>
<path d="M0 0 C2.97 0.495 2.97 0.495 6 1 C1.87675353 5.25209792 -2.51282966 9.13635705 -7 13 C-7.66 12.67 -8.32 12.34 -9 12 C-9 11.34 -9 10.68 -9 10 C-8.01 10 -7.02 10 -6 10 C-5.7525 9.278125 -5.505 8.55625 -5.25 7.8125 C-3.89016326 4.75286734 -2.17082246 2.5326262 0 0 Z " fill="#D6DDE6" transform="translate(165,355)"/>
<path d="M0 0 C0.66 0.33 1.32 0.66 2 1 C1.67 1.99 1.34 2.98 1 4 C0.835 4.680625 0.67 5.36125 0.5 6.0625 C0 8 0 8 -1 10 C-2.97888961 10.72693904 -4.97954558 11.39816251 -7 12 C-7.33 11.01 -7.66 10.02 -8 9 C-5.84140076 5.16249025 -3.71404629 2.38760119 0 0 Z " fill="#E3ECF1" transform="translate(232,339)"/>
<path d="M0 0 C0.37125 0.598125 0.7425 1.19625 1.125 1.8125 C2.91689574 4.20685711 2.91689574 4.20685711 5.9375 5.375 C9.61092266 7.32416304 10.94582245 9.44469271 13 13 C12.01 13.495 12.01 13.495 11 14 C8.5249829 12.88568235 6.32116581 11.41849022 4 10 C4 9.34 4 8.68 4 8 C3.01 7.67 2.02 7.34 1 7 C0.67 4.69 0.34 2.38 0 0 Z " fill="#D2DBE5" transform="translate(376,215)"/>
<path d="M0 0 C3.63 0 7.26 0 11 0 C11 0.66 11 1.32 11 2 C13.64 2.33 16.28 2.66 19 3 C19 3.33 19 3.66 19 4 C8.605 4.495 8.605 4.495 -2 5 C-1.34 4.34 -0.68 3.68 0 3 C0 2.01 0 1.02 0 0 Z " fill="#314567" transform="translate(221,548)"/>
<path d="M0 0 C4.81033104 2.54664585 8.32442148 4.99027798 12 9 C8.7 9.33 5.4 9.66 2 10 C1.34 6.7 0.68 3.4 0 0 Z " fill="#273D5E" transform="translate(409,245)"/>
<path d="M0 0 C0.66 0.66 1.32 1.32 2 2 C-6.95217391 5.70434783 -6.95217391 5.70434783 -12 5 C-13.66796875 3.4765625 -13.66796875 3.4765625 -15 2 C-5.00312891 -0.48811014 -5.00312891 -0.48811014 0 0 Z " fill="#B9C4D3" transform="translate(96,570)"/>
<path d="M0 0 C0.61875 0.33 1.2375 0.66 1.875 1 C1.875 1.33 1.875 1.66 1.875 2 C-0.7494748 2.24809955 -3.37267145 2.4741699 -6 2.6875 C-6.74636719 2.76033203 -7.49273437 2.83316406 -8.26171875 2.90820312 C-10.4296875 3.07421875 -10.4296875 3.07421875 -14.125 3 C-14.785 2.01 -15.445 1.02 -16.125 0 C-10.89155404 -1.74448199 -5.24542565 -1.67853621 0 0 Z " fill="#1F354F" transform="translate(184.125,555)"/>
<path d="M0 0 C0.66 0.66 1.32 1.32 2 2 C0.5903653 2.70180531 -0.82807641 3.38593958 -2.25 4.0625 C-3.03890625 4.44535156 -3.8278125 4.82820312 -4.640625 5.22265625 C-7.25993522 6.08564091 -8.44855176 5.93045933 -11 5 C-10.6875 3.0625 -10.6875 3.0625 -10 1 C-6.47940432 -0.17353189 -3.693507 -0.20146402 0 0 Z " fill="#DFE8EF" transform="translate(56,571)"/>
<path d="M0 0 C2.64 1.65 5.28 3.3 8 5 C5 8 5 8 2.73828125 8.07421875 C1.53751953 7.88279297 1.53751953 7.88279297 0.3125 7.6875 C-0.49574219 7.56761719 -1.30398438 7.44773437 -2.13671875 7.32421875 C-2.75160156 7.21722656 -3.36648438 7.11023438 -4 7 C-3.34 5.68 -2.68 4.36 -2 3 C-1.34 3 -0.68 3 0 3 C0 2.01 0 1.02 0 0 Z " fill="#243A5E" transform="translate(575,370)"/>
<path d="M0 0 C-3.82774727 4.18659858 -7.94607874 7.37820862 -13 10 C-13.66 10 -14.32 10 -15 10 C-15.33 10.66 -15.66 11.32 -16 12 C-15.9375 9.8125 -15.9375 9.8125 -15 7 C-13.28561215 5.51728618 -11.51127281 4.31959171 -9.59375 3.11328125 C-7.83938228 2.07639069 -7.83938228 2.07639069 -7 0 C-4.0262656 -1.09036928 -3.11592499 -1.03864166 0 0 Z " fill="#D6E0EB" transform="translate(188,344)"/>
<path d="M0 0 C-0.96371494 2.40928735 -1.65210163 3.76007009 -3.8125 5.25 C-6.42210553 6.1447219 -8.25952518 6.35134293 -11 6 C-12.65234375 4.48046875 -12.65234375 4.48046875 -14 3 C-9.07015675 0.96006486 -5.42039575 -0.40652968 0 0 Z " fill="#304560" transform="translate(75,567)"/>
<path d="M0 0 C1.32 0 2.64 0 4 0 C2.40279281 4.3124594 -0.31633819 6.42143673 -4 9 C-6.3125 8.9375 -6.3125 8.9375 -8 8 C-8.33 7.34 -8.66 6.68 -9 6 C-7.2421875 5.0234375 -5.484375 4.046875 -3.7265625 3.0703125 C-1.8387386 1.99102726 -1.8387386 1.99102726 0 0 Z " fill="#D8E1E9" transform="translate(156,397)"/>
<path d="M0 0 C3.29714793 0.32971479 4.6226839 0.6226839 7 3 C7.125 6.125 7.125 6.125 7 9 C2.58110387 7.64978174 0.65654657 5.73884332 -2 2 C-1.34 1.34 -0.68 0.68 0 0 Z " fill="#DFE7ED" transform="translate(541,340)"/>
<path d="M0 0 C1.48285242 0.95262034 2.96118201 1.91228405 4.4375 2.875 C5.67306641 3.67550781 5.67306641 3.67550781 6.93359375 4.4921875 C9 6 9 6 10 8 C7 10 7 10 4.4375 9.9375 C2 9 2 9 0.6875 6.6875 C0 4 0 4 0 0 Z " fill="#253C5E" transform="translate(457,281)"/>
<path d="M0 0 C0.66 0.33 1.32 0.66 2 1 C1.45276317 4.37462715 0.9451 6.08235 -1 9 C-4.625 9.1875 -4.625 9.1875 -8 9 C-8 8.01 -8 7.02 -8 6 C-6.25 4.39453125 -6.25 4.39453125 -4 2.8125 C-3.2575 2.28269531 -2.515 1.75289062 -1.75 1.20703125 C-1.1725 0.80871094 -0.595 0.41039062 0 0 Z " fill="#233754" transform="translate(328,237)"/>
<path d="M0 0 C1.27875 -0.061875 2.5575 -0.12375 3.875 -0.1875 C4.95394531 -0.23970703 4.95394531 -0.23970703 6.0546875 -0.29296875 C6.69664062 -0.19628906 7.33859375 -0.09960938 8 0 C10 3 10 3 10 6 C6.29706315 6.33663062 4.60465619 6.47736015 1.625 4.125 C0 2 0 2 0 0 Z " fill="#142942" transform="translate(665,573)"/>
<path d="M0 0 C1.04542969 0.00515625 2.09085938 0.0103125 3.16796875 0.015625 C4.72451172 0.00789062 4.72451172 0.00789062 6.3125 0 C9.37474505 0.26730765 11.58412967 0.97472399 14.35546875 2.265625 C14.35546875 2.925625 14.35546875 3.585625 14.35546875 4.265625 C12.31355894 4.12323663 10.2719483 3.97655472 8.23046875 3.828125 C7.09351563 3.74691406 5.9565625 3.66570313 4.78515625 3.58203125 C1.60142095 3.28831535 -1.49964032 2.83438187 -4.64453125 2.265625 C-2.64453125 0.265625 -2.64453125 0.265625 0 0 Z " fill="#4C5D75" transform="translate(541.64453125,554.734375)"/>
<path d="M0 0 C0.66 0.66 1.32 1.32 2 2 C4.57061311 2.64767793 4.57061311 2.64767793 7 3 C7 3.66 7 4.32 7 5 C9.97 5 12.94 5 16 5 C16 5.33 16 5.66 16 6 C13.37549914 6.22119939 10.75129514 6.42746669 8.125 6.625 C7.37863281 6.68945312 6.63226563 6.75390625 5.86328125 6.8203125 C3.9129953 6.96087365 1.95530533 6.98759849 0 7 C-0.66 6.34 -1.32 5.68 -2 5 C-2 3.68 -2 2.36 -2 1 C-1.34 0.67 -0.68 0.34 0 0 Z " fill="#DDE5ED" transform="translate(427,519)"/>
<path d="M0 0 C8.91 0 17.82 0 27 0 C27 0.33 27 0.66 27 1 C22.87576495 1.36348436 18.75054384 1.71421062 14.625 2.0625 C12.8615625 2.2181543 12.8615625 2.2181543 11.0625 2.37695312 C9.38027344 2.51713867 9.38027344 2.51713867 7.6640625 2.66015625 C6.62717285 2.74918213 5.5902832 2.83820801 4.52197266 2.92993164 C2 3 2 3 0 2 C0 1.34 0 0.68 0 0 Z " fill="#41526B" transform="translate(348,392)"/>
<path d="M0 0 C-0.75 5.75 -0.75 5.75 -3 8 C-5.625 8.125 -5.625 8.125 -8 8 C-8 6.68 -8 5.36 -8 4 C-3.88888889 0 -3.88888889 0 0 0 Z " fill="#D6DFE8" transform="translate(170,389)"/>
<path d="M0 0 C1.4391134 0.28359887 2.87625518 0.57721399 4.3125 0.875 C5.11300781 1.03742188 5.91351563 1.19984375 6.73828125 1.3671875 C9 2 9 2 12 4 C12.1875 6.625 12.1875 6.625 12 9 C7.50985376 7.50328459 3.52151236 5.16631659 0 2 C0 1.34 0 0.68 0 0 Z " fill="#1F314C" transform="translate(399,266)"/>
<path d="M0 0 C2.0622048 -0.054348 4.12482816 -0.09294961 6.1875 -0.125 C7.33605469 -0.14820313 8.48460937 -0.17140625 9.66796875 -0.1953125 C12.91740372 -0.00484152 15.08660521 0.60639873 18 2 C18 2.33 18 2.66 18 3 C15.37493198 3.02690844 12.75013827 3.04679404 10.125 3.0625 C9.37863281 3.07087891 8.63226563 3.07925781 7.86328125 3.08789062 C2.2265625 3.11328125 2.2265625 3.11328125 0 2 C0 1.34 0 0.68 0 0 Z " fill="#A1ACBE" transform="translate(489,550)"/>
<path d="M0 0 C0.99 0 1.98 0 3 0 C3.33 0.99 3.66 1.98 4 3 C1.22719294 6.08089673 -1.06326356 7.68775452 -5 9 C-5.33 7.68 -5.66 6.36 -6 5 C-2.25 2 -2.25 2 0 2 C0 1.34 0 0.68 0 0 Z " fill="#213657" transform="translate(223,341)"/>
<path d="M0 0 C0 0.99 0 1.98 0 3 C-2.99833285 5.46921528 -4.40259059 6.05635938 -8.3125 5.6875 C-9.199375 5.460625 -10.08625 5.23375 -11 5 C-10 2 -10 2 -7.1875 0.25 C-4.03596914 -0.98589446 -3.03070628 -1.28222189 0 0 Z " fill="#122847" transform="translate(296,290)"/>
<path d="M0 0 C0.66 0.33 1.32 0.66 2 1 C1.38511719 1.68835938 1.38511719 1.68835938 0.7578125 2.390625 C0.21898437 3.00421875 -0.31984375 3.6178125 -0.875 4.25 C-1.40867187 4.85328125 -1.94234375 5.4565625 -2.4921875 6.078125 C-3.9797487 7.97418746 -5.00322436 9.81290005 -6 12 C-8.31 12 -10.62 12 -13 12 C-8.87675353 7.74790208 -4.48717034 3.86364295 0 0 Z " fill="#C9D5DF" transform="translate(283,300)"/>
<path d="M0 0 C1.6875 2 1.6875 2 3 4 C1.68 5.32 0.36 6.64 -1 8 C-3.31 6.35 -5.62 4.7 -8 3 C-5.36657694 0.36657694 -3.69534435 0 0 0 Z " fill="#DDE6EC" transform="translate(452,269)"/>
<path d="M0 0 C1.98 0 3.96 0 6 0 C5.46939601 4.51013391 3.69113883 7.38378219 1 11 C0.67 11 0.34 11 0 11 C0 7.37 0 3.74 0 0 Z " fill="#F1F6FD" transform="translate(377,127)"/>
<path d="M0 0 C0.66 0.33 1.32 0.66 2 1 C-2.11378556 7.70459519 -2.11378556 7.70459519 -5.8125 8.9375 C-6.8953125 8.9684375 -6.8953125 8.9684375 -8 9 C-8.33 8.01 -8.66 7.02 -9 6 C-3.375 1.125 -3.375 1.125 0 0 Z " fill="#D9E3EA" transform="translate(260,319)"/>
<path d="M0 0 C-0.99 1.98 -1.98 3.96 -3 6 C-5.375 5.6875 -5.375 5.6875 -8 5 C-8.66 4.01 -9.32 3.02 -10 2 C-7.85732894 -2.28534211 -3.95706306 -0.79141261 0 0 Z " fill="#E4EAEF" transform="translate(469,280)"/>
<path d="M0 0 C1.65 0 3.3 0 5 0 C3.68 3.96 2.36 7.92 1 12 C-2 8 -2 8 -1.75 4.875 C-1 2 -1 2 0 0 Z " fill="#CED9E4" transform="translate(305,428)"/>
<path d="M0 0 C5.75 3.75 5.75 3.75 8 6 C8 7.32 8 8.64 8 10 C2.98886765 8.5682479 1.05530451 6.01554307 -2 2 C-1.34 2 -0.68 2 0 2 C0 1.34 0 0.68 0 0 Z " fill="#D0DAE4" transform="translate(525,328)"/>
<path d="M0 0 C0.99 0.66 1.98 1.32 3 2 C2.01 3.485 2.01 3.485 1 5 C1.66 5 2.32 5 3 5 C3.33 6.65 3.66 8.3 4 10 C-2.75 6.375 -2.75 6.375 -5 3 C-3.35 2.01 -1.7 1.02 0 0 Z " fill="#D9DFE8" transform="translate(491,299)"/>
<path d="M0 0 C1.93719378 -0.05406122 3.87481921 -0.09282025 5.8125 -0.125 C6.89144531 -0.14820313 7.97039063 -0.17140625 9.08203125 -0.1953125 C12 0 12 0 15 2 C11.52102577 4.31931615 9.96555502 4.04089055 5.94140625 3.42578125 C3.73384499 2.94162798 1.91727332 2.19829583 0 1 C0 0.67 0 0.34 0 0 Z " fill="#132946" transform="translate(598,562)"/>
<path d="M0 0 C0.66 0 1.32 0 2 0 C2 0.99 2 1.98 2 3 C2.639375 3.2475 3.27875 3.495 3.9375 3.75 C6 5 6 5 6.75 7.125 C6.8325 7.74375 6.915 8.3625 7 9 C4.36 8.67 1.72 8.34 -1 8 C-0.67 5.36 -0.34 2.72 0 0 Z " fill="#E5EBEE" transform="translate(544,530)"/>
<path d="M0 0 C0.94875 0.04125 1.8975 0.0825 2.875 0.125 C2.875 1.115 2.875 2.105 2.875 3.125 C1.34375 4.51171875 1.34375 4.51171875 -0.625 5.8125 C-1.59953125 6.46798828 -1.59953125 6.46798828 -2.59375 7.13671875 C-3.0990625 7.46285156 -3.604375 7.78898437 -4.125 8.125 C-4.75 5.25 -4.75 5.25 -5.125 2.125 C-3.125 0.125 -3.125 0.125 0 0 Z " fill="#E1E7ED" transform="translate(325.125,401.875)"/>
<path d="M0 0 C2.475 0.99 2.475 0.99 5 2 C5 3.32 5 4.64 5 6 C5.99 6 6.98 6 8 6 C7.67 7.32 7.34 8.64 7 10 C2.71675909 7.48592381 0.35468295 5.87685861 -1 1 C-0.67 0.67 -0.34 0.34 0 0 Z " fill="#DDE6ED" transform="translate(390,392)"/>
<path d="M0 0 C1.48285242 0.95262034 2.96118201 1.91228405 4.4375 2.875 C5.67306641 3.67550781 5.67306641 3.67550781 6.93359375 4.4921875 C9 6 9 6 10 8 C7.05094291 8.90110078 5.58815249 9.27773867 2.75 7.9375 C0.45753774 5.39941678 0.29782808 3.3505659 0 0 Z " fill="#DAE4EB" transform="translate(487,333)"/>
<path d="M0 0 C0.99 0 1.98 0 3 0 C3 2.31 3 4.62 3 7 C2.01 7 1.02 7 0 7 C0 7.66 0 8.32 0 9 C-0.99 9 -1.98 9 -3 9 C-2.25 2.25 -2.25 2.25 0 0 Z " fill="#0C2448" transform="translate(304,257)"/>
<path d="M0 0 C2.31 0 4.62 0 7 0 C7 0.66 7 1.32 7 2 C8.32 2.33 9.64 2.66 11 3 C10.67 3.99 10.34 4.98 10 6 C7.8125 6.375 7.8125 6.375 5 6 C3.00977164 4.16038352 1.61010101 2.20813852 0 0 Z " fill="#092342" transform="translate(592,549)"/>
<path d="M0 0 C4.62 0 9.24 0 14 0 C11 3 11 3 8.30078125 3.29296875 C7.31464844 3.25816406 6.32851563 3.22335937 5.3125 3.1875 C4.31863281 3.16042969 3.32476562 3.13335938 2.30078125 3.10546875 C1.54152344 3.07066406 0.78226562 3.03585937 0 3 C0 2.01 0 1.02 0 0 Z " fill="#0C203E" transform="translate(474,546)"/>
<path d="M0 0 C0.70125 0.2475 1.4025 0.495 2.125 0.75 C1.125 3.75 1.125 3.75 -1.125 4.9375 C-3.87291147 5.74938294 -6.02947889 5.91260121 -8.875 5.75 C-8.875 5.09 -8.875 4.43 -8.875 3.75 C-3.85592031 -0.33529742 -3.85592031 -0.33529742 0 0 Z " fill="#2A3F5E" transform="translate(181.875,350.25)"/>
<path d="M0 0 C3.41021743 0.78697325 6.68885166 1.87119943 10 3 C10 4.32 10 5.64 10 7 C5.545 6.01 5.545 6.01 1 5 C0.67 3.35 0.34 1.7 0 0 Z " fill="#CDD4DC" transform="translate(673,571)"/>
<path d="M0 0 C6.27 0.33 12.54 0.66 19 1 C19 1.33 19 1.66 19 2 C17.27192682 2.33895656 15.54248026 2.67091525 13.8125 3 C12.36810547 3.2784375 12.36810547 3.2784375 10.89453125 3.5625 C8.2065794 3.96877612 5.71228981 4.07933572 3 4 C3.33 3.01 3.66 2.02 4 1 C2.68 0.67 1.36 0.34 0 0 Z " fill="#41546C" transform="translate(497,531)"/>
<path d="M0 0 C0.99 0 1.98 0 3 0 C3.33 1.32 3.66 2.64 4 4 C2.9275 4.391875 1.855 4.78375 0.75 5.1875 C-2.89140865 6.72383468 -4.76947479 8.69882269 -7 12 C-7.99 11.67 -8.98 11.34 -10 11 C-9.34 11 -8.68 11 -8 11 C-7.67 9.35 -7.34 7.7 -7 6 C-6.030625 5.7525 -5.06125 5.505 -4.0625 5.25 C-2.5465625 4.63125 -2.5465625 4.63125 -1 4 C-0.03122943 1.96756452 -0.03122943 1.96756452 0 0 Z " fill="#283D59" transform="translate(167,385)"/>
<path d="M0 0 C4.10839064 1.45002023 7.50344613 3.3979134 11 6 C11 6.66 11 7.32 11 8 C9.68 8 8.36 8 7 8 C7 7.34 7 6.68 7 6 C4.36 5.34 1.72 4.68 -1 4 C-0.67 2.68 -0.34 1.36 0 0 Z " fill="#D8E1E8" transform="translate(400,269)"/>
<path d="M0 0 C5.78461538 4.43076923 5.78461538 4.43076923 6.875 7.3125 C6.936875 8.1478125 6.936875 8.1478125 7 9 C5.68 9.33 4.36 9.66 3 10 C2.71125 9.38125 2.4225 8.7625 2.125 8.125 C1.06279958 5.86674235 1.06279958 5.86674235 -1 4 C-0.625 1.875 -0.625 1.875 0 0 Z " fill="#283C59" transform="translate(406,409)"/>
<path d="M0 0 C0.66 0.33 1.32 0.66 2 1 C2 2.65 2 4.3 2 6 C-0.70879335 7.35439668 -3.00933268 7.06501451 -6 7 C-6.33 6.34 -6.66 5.68 -7 5 C-4.69 3.35 -2.38 1.7 0 0 Z " fill="#2A3D5E" transform="translate(226,314)"/>
<path d="M0 0 C2.05078125 0.03255208 4.1015625 0.06510417 6.15234375 0.09765625 C4.27734375 3.97265625 4.27734375 3.97265625 3.15234375 5.09765625 C1.4861726 5.13829457 -0.1815372 5.14037725 -1.84765625 5.09765625 C-2.41015625 3.16015625 -2.41015625 3.16015625 -2.84765625 1.09765625 C-1.84765625 0.09765625 -1.84765625 0.09765625 0 0 Z " fill="#142A45" transform="translate(313.84765625,271.90234375)"/>
<path d="M0 0 C1.60332791 -0.08121924 3.20784026 -0.13929134 4.8125 -0.1875 C6.15248047 -0.23970703 6.15248047 -0.23970703 7.51953125 -0.29296875 C10.41647515 0.04918998 11.22555028 0.75393573 13 3 C11.68 2.67 10.36 2.34 9 2 C9 2.99 9 3.98 9 5 C7.35 5 5.7 5 4 5 C4 3.68 4 2.36 4 1 C2.68 0.67 1.36 0.34 0 0 Z " fill="#B7C2CD" transform="translate(592,564)"/>
<path d="M0 0 C3.53586014 3.17320782 5.58578031 5.16743695 6 10 C4.68 10.33 3.36 10.66 2 11 C0.57741188 7.17679443 -0.24042276 4.08718695 0 0 Z " fill="#2E435F" transform="translate(413,418)"/>
<path d="M0 0 C2.31 0.33 4.62 0.66 7 1 C7 1.99 7 2.98 7 4 C9.475 4.99 9.475 4.99 12 6 C11.67 7.32 11.34 8.64 11 10 C10.62875 9.5875 10.2575 9.175 9.875 8.75 C7.89630058 6.80047389 7.89630058 6.80047389 4.8125 4.9375 C3.884375 4.298125 2.95625 3.65875 2 3 C2 2.34 2 1.68 2 1 C1.34 0.67 0.68 0.34 0 0 Z " fill="#2D405B" transform="translate(546,378)"/>
<path d="M0 0 C3.12501639 0.37294434 6.06418547 0.84070212 9 2 C10.5625 5.125 10.5625 5.125 11 8 C6.40378078 6.5129879 3.53027653 4.20187872 0 1 C0 0.67 0 0.34 0 0 Z " fill="#D2D7E3" transform="translate(568,364)"/>
<path d="M0 0 C1.134375 0.020625 2.26875 0.04125 3.4375 0.0625 C0.78095343 3.80134332 -1.14360387 5.71228174 -5.5625 7.0625 C-4.52245509 0.07934132 -4.52245509 0.07934132 0 0 Z " fill="#D5DEE7" transform="translate(307.5625,250.9375)"/>
<path d="M0 0 C6.57142857 4 6.57142857 4 8 8 C3.55063291 8.36075949 3.55063291 8.36075949 1.1875 6.8125 C-0.36678206 4.44017475 -0.22537188 2.77958655 0 0 Z " fill="#2C3E5B" transform="translate(388,229)"/>
<path d="M0 0 C2.97 0 5.94 0 9 0 C8.01 0.33 7.02 0.66 6 1 C6 1.99 6 2.98 6 4 C3.69 4.33 1.38 4.66 -1 5 C-0.67 3.35 -0.34 1.7 0 0 Z " fill="#DAE3EB" transform="translate(316,546)"/>
<path d="M0 0 C3.71888239 0.50712033 6.73454239 1.11608215 10 3 C9.67 3.66 9.34 4.32 9 5 C3.375 5.25 3.375 5.25 0 3 C0 2.01 0 1.02 0 0 Z " fill="#E8EEF6" transform="translate(571,401)"/>
<path d="M0 0 C4.875 2.625 4.875 2.625 6 6 C1.25 7.125 1.25 7.125 -1 6 C-1.042721 4.33388095 -1.04063832 2.66617115 -1 1 C-0.67 0.67 -0.34 0.34 0 0 Z " fill="#D9E5EE" transform="translate(385,419)"/>
<path d="M0 0 C0.66 0.33 1.32 0.66 2 1 C0.68 3.31 -0.64 5.62 -2 8 C-3.98 8 -5.96 8 -8 8 C-5.58443874 4.80800833 -3.31996462 2.25283313 0 0 Z " fill="#2B3D5B" transform="translate(171,356)"/>
<path d="M0 0 C1.32 0.33 2.64 0.66 4 1 C0.55384615 5.8 0.55384615 5.8 -2.25 6.8125 C-3.11625 6.9053125 -3.11625 6.9053125 -4 7 C-4.33 5.35 -4.66 3.7 -5 2 C-3.35 2 -1.7 2 0 2 C0 1.34 0 0.68 0 0 Z " fill="#D9E2EB" transform="translate(210,323)"/>
<path d="M0 0 C1.29315061 0.95632999 2.58446853 1.91513851 3.875 2.875 C4.59429687 3.40867187 5.31359375 3.94234375 6.0546875 4.4921875 C8 6 8 6 10 8 C7.03 8 4.06 8 1 8 C0.67 5.36 0.34 2.72 0 0 Z " fill="#DAE4EC" transform="translate(441,298)"/>
<path d="M0 0 C2.97 0.33 5.94 0.66 9 1 C7.1875 3.5 7.1875 3.5 5 6 C4.01 6 3.02 6 2 6 C0 3 0 3 0 0 Z " fill="#CFD9E1" transform="translate(290,259)"/>
<path d="M0 0 C2.97 0 5.94 0 9 0 C8.67 1.65 8.34 3.3 8 5 C4.5625 4.1875 4.5625 4.1875 1 3 C0.67 2.01 0.34 1.02 0 0 Z " fill="#455065" transform="translate(574,399)"/>
<path d="M0 0 C3.37503669 1.1858237 5.64722731 2.27573689 8 5 C7.01 5 6.02 5 5 5 C5 5.99 5 6.98 5 8 C3.35 7.67 1.7 7.34 0 7 C0.66 5.35 1.32 3.7 2 2 C1.34 2 0.68 2 0 2 C0 1.34 0 0.68 0 0 Z " fill="#243B5A" transform="translate(392,399)"/>
<path d="M0 0 C1.46224799 0.42423244 2.91973412 0.86490245 4.375 1.3125 C5.18710937 1.55613281 5.99921875 1.79976563 6.8359375 2.05078125 C9 3 9 3 11 6 C10.01 6.33 9.02 6.66 8 7 C4.42869967 4.95925695 2.2949791 3.44246864 0 0 Z " fill="#CBD4E0" transform="translate(495,309)"/>
<path d="M0 0 C0.80824219 0.11085938 1.61648437 0.22171875 2.44921875 0.3359375 C3.37154297 0.47902344 3.37154297 0.47902344 4.3125 0.625 C-0.10630243 3.57086829 -2.36517339 3.7235616 -7.6875 3.625 C-7.6875 2.965 -7.6875 2.305 -7.6875 1.625 C-4.33422361 -0.61051759 -3.78006343 -0.54783528 0 0 Z " fill="#E0E8EF" transform="translate(111.6875,551.375)"/>
<path d="M0 0 C1.32 0 2.64 0 4 0 C2.8905928 3.48670834 1.73662334 6.77484237 0 10 C-0.66 9.67 -1.32 9.34 -2 9 C-1.34 6.03 -0.68 3.06 0 0 Z " fill="#D1DDE6" transform="translate(312,415)"/>
<path d="M0 0 C4.455 0.99 4.455 0.99 9 2 C9 3.65 9 5.3 9 7 C2.25 3.375 2.25 3.375 0 0 Z " fill="#CDD7E2" transform="translate(431,261)"/>
<path d="M0 0 C2.31 0.33 4.62 0.66 7 1 C7.33 2.65 7.66 4.3 8 6 C5.6875 5.8125 5.6875 5.8125 3 5 C1.1875 2.4375 1.1875 2.4375 0 0 Z " fill="#CAD6DF" transform="translate(394,233)"/>
<path d="M0 0 C1.98 0 3.96 0 6 0 C6 0.99 6 1.98 6 3 C6.99 3.33 7.98 3.66 9 4 C6.75 4.6875 6.75 4.6875 4 5 C1.6875 3.6875 1.6875 3.6875 0 2 C0 1.34 0 0.68 0 0 Z " fill="#0A2343" transform="translate(627,559)"/>
<path d="M0 0 C-0.99 0.495 -0.99 0.495 -2 1 C-2 1.99 -2 2.98 -2 4 C-4.3431213 3.74438677 -6.67843403 3.40729228 -9 3 C-9.33 2.34 -9.66 1.68 -10 1 C-6.78548731 -0.60725635 -3.56387464 -0.05748185 0 0 Z " fill="#D8E0E8" transform="translate(623,551)"/>
<path d="M0 0 C4.7517398 0.43197635 6.92000054 1.32769295 10 5 C9.01 5.33 8.02 5.66 7 6 C1.36619718 2.73239437 1.36619718 2.73239437 0 0 Z " fill="#E3ECF5" transform="translate(548,383)"/>
<path d="M0 0 C1.65 0 3.3 0 5 0 C5 1.98 5 3.96 5 6 C2.525 5.01 2.525 5.01 0 4 C0 2.68 0 1.36 0 0 Z " fill="#D8E0E9" transform="translate(518,324)"/>
<path d="M0 0 C0.66 0 1.32 0 2 0 C1.65120368 3.25543229 0.97866739 4.01873107 -1.5625 6.25 C-2.366875 6.8275 -3.17125 7.405 -4 8 C-4.33 6.68 -4.66 5.36 -5 4 C-4.360625 3.71125 -3.72125 3.4225 -3.0625 3.125 C-0.84793921 2.17176549 -0.84793921 2.17176549 0 0 Z " fill="#293C5A" transform="translate(334,260)"/>
<path d="M0 0 C1.50539661 0.94983358 3.00420347 1.91011891 4.5 2.875 C5.75296875 3.67550781 5.75296875 3.67550781 7.03125 4.4921875 C7.6809375 4.98976563 8.330625 5.48734375 9 6 C9 6.66 9 7.32 9 8 C5.81390075 7.64598897 4.20933322 7.16972964 1.6875 5.125 C0 3 0 3 0 0 Z " fill="#D9E1EA" transform="translate(412,278)"/>
<path d="M0 0 C1.32 0 2.64 0 4 0 C4 0.99 4 1.98 4 3 C4.99 3 5.98 3 7 3 C7 3.99 7 4.98 7 6 C2.32307692 4.52307692 2.32307692 4.52307692 0.6875 1.875 C0.460625 1.25625 0.23375 0.6375 0 0 Z " fill="#CCD8E1" transform="translate(402,239)"/>
<path d="M0 0 C2.375 0.3125 2.375 0.3125 5 1 C5.66 1.99 6.32 2.98 7 4 C5.68 4 4.36 4 3 4 C2.67 4.66 2.34 5.32 2 6 C1.34 4.02 0.68 2.04 0 0 Z " fill="#DBE4ED" transform="translate(568,397)"/>
<path d="M0 0 C0.99 0 1.98 0 3 0 C2.67 1.32 2.34 2.64 2 4 C0.35 4.33 -1.3 4.66 -3 5 C-1.125 1.125 -1.125 1.125 0 0 Z " fill="#122944" transform="translate(163,364)"/>
<path d="M0 0 C0.66 0.33 1.32 0.66 2 1 C0.515 3.475 0.515 3.475 -1 6 C-2.32 5.67 -3.64 5.34 -5 5 C-3.35 3.35 -1.7 1.7 0 0 Z " fill="#D8E4EC" transform="translate(278,306)"/>
</svg>
